  0
SECTION
  2
HEADER
  9
$ACADVER
  1
AC1009
  9
$INSBASE
 10
0.0
 20
0.0
 30
0.0
  9
$EXTMIN
 10
1062.1224968439069016
 20
416.9792007614011027
 30
0.0
  9
$EXTMAX
 10
3056.7712175204937921
 20
1634.8967008703500596
 30
0.0
  9
$LIMMIN
 10
0.0
 20
0.0
  9
$LIMMAX
 10
12.0
 20
9.0
  9
$ORTHOMODE
 70
     0
  9
$REGENMODE
 70
     1
  9
$FILLMODE
 70
     1
  9
$QTEXTMODE
 70
     0
  9
$MIRRTEXT
 70
     0
  9
$DRAGMODE
 70
     2
  9
$LTSCALE
 40
1.0
  9
$OSMODE
 70
    37
  9
$ATTMODE
 70
     1
  9
$TEXTSIZE
 40
0.2
  9
$TRACEWID
 40
0.05
  9
$TEXTSTYLE
  7
STANDARD
  9
$CLAYER
  8
0
  9
$CELTYPE
  6
BYLAYER
  9
$CECOLOR
 62
   256
  9
$DIMSCALE
 40
1.0
  9
$DIMASZ
 40
0.18
  9
$DIMEXO
 40
0.0625
  9
$DIMDLI
 40
0.38
  9
$DIMRND
 40
0.0
  9
$DIMDLE
 40
0.0
  9
$DIMEXE
 40
0.18
  9
$DIMTP
 40
0.0
  9
$DIMTM
 40
0.0
  9
$DIMTXT
 40
0.18
  9
$DIMCEN
 40
0.09
  9
$DIMTSZ
 40
0.0
  9
$DIMTOL
 70
     0
  9
$DIMLIM
 70
     0
  9
$DIMTIH
 70
     1
  9
$DIMTOH
 70
     1
  9
$DIMSE1
 70
     0
  9
$DIMSE2
 70
     0
  9
$DIMTAD
 70
     0
  9
$DIMZIN
 70
     0
  9
$DIMBLK
  1

  9
$DIMASO
 70
     1
  9
$DIMSHO
 70
     1
  9
$DIMPOST
  1

  9
$DIMAPOST
  1

  9
$DIMALT
 70
     0
  9
$DIMALTD
 70
     2
  9
$DIMALTF
 40
25.3999999999999986
  9
$DIMLFAC
 40
1.0
  9
$DIMTOFL
 70
     0
  9
$DIMTVP
 40
0.0
  9
$DIMTIX
 70
     0
  9
$DIMSOXD
 70
     0
  9
$DIMSAH
 70
     0
  9
$DIMBLK1
  1

  9
$DIMBLK2
  1

  9
$DIMSTYLE
  2
STANDARD
  9
$DIMCLRD
 70
     0
  9
$DIMCLRE
 70
     0
  9
$DIMCLRT
 70
     0
  9
$DIMTFAC
 40
1.0
  9
$DIMGAP
 40
0.09
  9
$LUNITS
 70
     2
  9
$LUPREC
 70
     4
  9
$SKETCHINC
 40
0.1
  9
$FILLETRAD
 40
0.0
  9
$AUNITS
 70
     0
  9
$AUPREC
 70
     0
  9
$MENU
  1
.
  9
$ELEVATION
 40
0.0
  9
$PELEVATION
 40
0.0
  9
$THICKNESS
 40
0.0
  9
$LIMCHECK
 70
     0
  9
$BLIPMODE
 70
     0
  9
$CHAMFERA
 40
0.0
  9
$CHAMFERB
 40
0.0
  9
$SKPOLY
 70
     0
  9
$TDCREATE
 40
2458864.8319328702054918
  9
$TDUPDATE
 40
2458864.859363425988704
  9
$TDINDWG
 40
0.0274305556
  9
$TDUSRTIMER
 40
0.0274305556
  9
$USRTIMER
 70
     1
  9
$ANGBASE
 50
0.0
  9
$ANGDIR
 70
     0
  9
$PDMODE
 70
     0
  9
$PDSIZE
 40
0.0
  9
$PLINEWID
 40
0.0
  9
$COORDS
 70
     1
  9
$SPLFRAME
 70
     0
  9
$SPLINETYPE
 70
     6
  9
$SPLINESEGS
 70
     8
  9
$ATTDIA
 70
     1
  9
$ATTREQ
 70
     1
  9
$HANDLING
 70
     1
  9
$HANDSEED
  5
4D3
  9
$SURFTAB1
 70
     6
  9
$SURFTAB2
 70
     6
  9
$SURFTYPE
 70
     6
  9
$SURFU
 70
     6
  9
$SURFV
 70
     6
  9
$UCSNAME
  2

  9
$UCSORG
 10
0.0
 20
0.0
 30
0.0
  9
$UCSXDIR
 10
1.0
 20
0.0
 30
0.0
  9
$UCSYDIR
 10
0.0
 20
1.0
 30
0.0
  9
$PUCSNAME
  2

  9
$PUCSORG
 10
0.0
 20
0.0
 30
0.0
  9
$PUCSXDIR
 10
1.0
 20
0.0
 30
0.0
  9
$PUCSYDIR
 10
0.0
 20
1.0
 30
0.0
  9
$USERI1
 70
     0
  9
$USERI2
 70
     0
  9
$USERI3
 70
     0
  9
$USERI4
 70
     0
  9
$USERI5
 70
     0
  9
$USERR1
 40
0.0
  9
$USERR2
 40
0.0
  9
$USERR3
 40
0.0
  9
$USERR4
 40
0.0
  9
$USERR5
 40
2.5
  9
$WORLDVIEW
 70
     1
  9
$SHADEDGE
 70
     3
  9
$SHADEDIF
 70
    70
  9
$TILEMODE
 70
     1
  9
$MAXACTVP
 70
    64
  9
$PLIMCHECK
 70
     0
  9
$PEXTMIN
 10
0.0
 20
0.0
 30
0.0
  9
$PEXTMAX
 10
0.0
 20
0.0
 30
0.0
  9
$PLIMMIN
 10
0.0
 20
0.0
  9
$PLIMMAX
 10
12.0
 20
9.0
  9
$UNITMODE
 70
     0
  9
$VISRETAIN
 70
     1
  9
$PLINEGEN
 70
     0
  9
$PSLTSCALE
 70
     1
  0
ENDSEC
  0
SECTION
  2
TABLES
  0
TABLE
  2
VPORT
 70
     1
  0
VPORT
  2
*ACTIVE
 70
     0
 10
0.0
 20
0.0
 11
1.0
 21
1.0
 12
1275.6808668223889072
 22
1554.2426476576299592
 13
0.0
 23
0.0
 14
0.5
 24
0.5
 15
0.5
 25
0.5
 16
0.0
 26
0.0
 36
1.0
 17
0.0
 27
0.0
 37
0.0
 40
286.8602768040028081
 41
2.357231149567367
 42
50.0
 43
0.0
 44
0.0
 50
0.0
 51
0.0
 71
     0
 72
  1000
 73
     1
 74
     3
 75
     0
 76
     1
 77
     0
 78
     0
  0
ENDTAB
  0
TABLE
  2
LTYPE
 70
     1
  0
LTYPE
  2
CONTINUOUS
 70
     0
  3
Solid line
 72
    65
 73
     0
 40
0.0
  0
ENDTAB
  0
TABLE
  2
LAYER
 70
     2
  0
LAYER
  2
0
 70
     0
 62
     7
  6
CONTINUOUS
  0
LAYER
  2
DEFPOINTS
 70
     0
 62
     7
  6
CONTINUOUS
  0
ENDTAB
  0
TABLE
  2
STYLE
 70
     2
  0
STYLE
  2
STANDARD
 70
     0
 40
0.0
 41
1.0
 50
0.0
 71
     0
 42
0.2
  3
txt
  4

  0
STYLE
  2
ANNOTATIVE
 70
     0
 40
0.0
 41
1.0
 50
0.0
 71
     0
 42
0.2
  3
txt
  4

  0
ENDTAB
  0
TABLE
  2
VIEW
 70
     0
  0
ENDTAB
  0
TABLE
  2
UCS
 70
     0
  0
ENDTAB
  0
TABLE
  2
APPID
 70
     8
  0
APPID
  2
ACAD
 70
     0
  0
APPID
  2
ACADANNOPO
 70
     0
  0
APPID
  2
ACADANNOTATIVE
 70
     0
  0
APPID
  2
ACAD_DSTYLE_DIMJAG
 70
     0
  0
APPID
  2
ACAD_DSTYLE_DIMTALN
 70
     0
  0
APPID
  2
ACAD_MLEADERVER
 70
     0
  0
APPID
  2
ACAD_NAV_VCDISPLAY
 70
     0
  0
APPID
  2
ACAD_PSEXT
 70
     0
  0
ENDTAB
  0
TABLE
  2
DIMSTYLE
 70
     2
  0
DIMSTYLE
  2
STANDARD
 70
     0
  3

  4

  5

  6

  7

 40
1.0
 41
0.18
 42
0.0625
 43
0.38
 44
0.18
 45
0.0
 46
0.0
 47
0.0
 48
0.0
140
0.18
141
0.09
142
0.0
143
25.3999999999999986
144
1.0
145
0.0
146
1.0
147
0.09
 71
     0
 72
     0
 73
     1
 74
     1
 75
     0
 76
     0
 77
     0
 78
     0
170
     0
171
     2
172
     0
173
     0
174
     0
175
     0
176
     0
177
     0
178
     0
  0
DIMSTYLE
  2
ANNOTATIVE
 70
     0
  3

  4

  5

  6

  7

 40
0.0
 41
0.18
 42
0.0625
 43
0.38
 44
0.18
 45
0.0
 46
0.0
 47
0.0
 48
0.0
140
0.18
141
0.09
142
0.0
143
25.3999999999999986
144
1.0
145
0.0
146
1.0
147
0.09
 71
     0
 72
     0
 73
     1
 74
     1
 75
     0
 76
     0
 77
     0
 78
     0
170
     0
171
     2
172
     0
173
     0
174
     0
175
     0
176
     0
177
     0
178
     0
  0
ENDTAB
  0
ENDSEC
  0
SECTION
  2
BLOCKS
  0
BLOCK
  8
0
  2
$MODEL_SPACE
 70
     0
 10
0.0
 20
0.0
 30
0.0
  3
$MODEL_SPACE
  1

  0
ENDBLK
  5
21
  8
0
  0
BLOCK
 67
     1
  8
0
  2
$PAPER_SPACE
 70
     0
 10
0.0
 20
0.0
 30
0.0
  3
$PAPER_SPACE
  1

  0
ENDBLK
  5
5B
 67
     1
  8
0
  0
BLOCK
  8
0
  2
*D1
 70
     1
 10
0.0
 20
0.0
 30
0.0
  3
*D1
  1

  0
LINE
  5
227
  8
0
 62
     0
 10
1513.199026059623975
 20
1599.2913757935889407
 30
0.0
 11
1551.1646284427840783
 21
1599.2913757935889407
 31
0.0
  0
LINE
  5
228
  8
0
 62
     0
 10
1513.1990260596251119
 20
1481.2913757935880312
 30
0.0
 11
1551.1646284427840783
 21
1481.2913757935880312
 31
0.0
  0
LINE
  5
229
  8
0
 62
     0
 10
1550.9846284427831051
 20
1599.1113757935891044
 30
0.0
 11
1550.9846284427831051
 21
1542.9342407321969404
 31
0.0
  0
LINE
  5
22A
  8
0
 62
     0
 10
1550.9846284427840146
 20
1481.4713757935880949
 30
0.0
 11
1550.9846284427831051
 21
1537.6485108549800316
 31
0.0
  0
SOLID
  5
22B
  8
0
 62
     0
 10
1550.954628442782905
 20
1599.1113757935891044
 30
0.0
 11
1551.0146284427830778
 21
1599.1113757935891044
 31
0.0
 12
1550.9846284427831051
 22
1599.2913757935889407
 32
0.0
 13
1550.9846284427831051
 23
1599.2913757935889407
 33
0.0
  0
SOLID
  5
22C
  8
0
 62
     0
 10
1550.9546284427840419
 20
1481.4713757935880949
 30
0.0
 11
1551.0146284427839873
 21
1481.4713757935880949
 31
0.0
 12
1550.9846284427840146
 22
1481.2913757935880312
 32
0.0
 13
1550.9846284427840146
 23
1481.2913757935880312
 33
0.0
  0
INSERT
  5
22D
  8
0
  2
*U6
 10
0.0
 20
0.0
 30
0.0
  0
POINT
  5
22E
  8
DEFPOINTS
 62
     0
 10
1513.136526059623975
 20
1599.2913757935889407
 30
0.0
  0
POINT
  5
22F
  8
DEFPOINTS
 62
     0
 10
1513.1365260596251119
 20
1481.2913757935880312
 30
0.0
  0
POINT
  5
230
  8
DEFPOINTS
 62
     0
 10
1550.9846284427840146
 20
1481.2913757935880312
 30
0.0
  0
ENDBLK
  5
231
  8
0
  0
BLOCK
  8
0
  2
*D2
 70
     1
 10
0.0
 20
0.0
 30
0.0
  3
*D2
  1

  0
LINE
  5
234
  8
0
 62
     0
 10
1039.536526059624066
 20
1599.3538757935880312
 30
0.0
 11
1039.536526059624066
 21
1621.4262536027299575
 31
0.0
  0
LINE
  5
235
  8
0
 62
     0
 10
1513.136526059623975
 20
1599.3538757935880312
 30
0.0
 11
1513.136526059623975
 21
1621.4262536027299575
 31
0.0
  0
LINE
  5
236
  8
0
 62
     0
 10
1039.7165260596239023
 20
1621.2462536027310307
 30
0.0
 11
1261.8911372465270233
 21
1621.2462536027310307
 31
0.0
  0
LINE
  5
237
  8
0
 62
     0
 10
1512.9565260596239114
 20
1621.2462536027310307
 30
0.0
 11
1290.7819148727210177
 21
1621.2462536027310307
 31
0.0
  0
SOLID
  5
238
  8
0
 62
     0
 10
1039.7165260596239023
 20
1621.2762536027300939
 30
0.0
 11
1039.7165260596239023
 21
1621.216253602731058
 31
0.0
 12
1039.536526059624066
 22
1621.2462536027310307
 32
0.0
 13
1039.536526059624066
 23
1621.2462536027310307
 33
0.0
  0
SOLID
  5
239
  8
0
 62
     0
 10
1512.9565260596239114
 20
1621.2762536027300939
 30
0.0
 11
1512.9565260596239114
 21
1621.216253602731058
 31
0.0
 12
1513.136526059623975
 22
1621.2462536027310307
 32
0.0
 13
1513.136526059623975
 23
1621.2462536027310307
 33
0.0
  0
INSERT
  5
23A
  8
0
  2
*U7
 10
0.0
 20
0.0
 30
0.0
  0
POINT
  5
23B
  8
DEFPOINTS
 62
     0
 10
1039.536526059624066
 20
1599.2913757935880312
 30
0.0
  0
POINT
  5
23C
  8
DEFPOINTS
 62
     0
 10
1513.136526059623975
 20
1599.2913757935880312
 30
0.0
  0
POINT
  5
23D
  8
DEFPOINTS
 62
     0
 10
1513.136526059623975
 20
1621.2462536027310307
 30
0.0
  0
ENDBLK
  5
23E
  8
0
  0
BLOCK
  8
0
  2
*D4
 70
     1
 10
0.0
 20
0.0
 30
0.0
  3
*D4
  1

  0
LINE
  5
38B
  8
0
 62
     0
 10
1535.7849968439070381
 20
1609.0741559397890796
 30
0.0
 11
1573.750599227066914
 21
1609.0741559397899891
 31
0.0
  0
LINE
  5
38C
  8
0
 62
     0
 10
1535.7849968439079476
 20
1491.0741559397890796
 30
0.0
 11
1573.7505992270680508
 21
1491.0741559397890796
 31
0.0
  0
LINE
  5
38D
  8
0
 62
     0
 10
1573.5705992270670777
 20
1608.8941559397899255
 30
0.0
 11
1573.5705992270670777
 21
1550.2560590775799483
 31
0.0
  0
LINE
  5
38E
  8
0
 62
     0
 10
1573.5705992270679872
 20
1491.2541559397889159
 30
0.0
 11
1573.5705992270670777
 21
1549.89225280200003
 31
0.0
  0
SOLID
  5
38F
  8
0
 62
     0
 10
1573.5405992270671049
 20
1608.8941559397899255
 30
0.0
 11
1573.6005992270670504
 21
1608.8941559397899255
 31
0.0
 12
1573.5705992270670777
 22
1609.0741559397899891
 32
0.0
 13
1573.5705992270670777
 23
1609.0741559397899891
 33
0.0
  0
SOLID
  5
390
  8
0
 62
     0
 10
1573.5405992270680144
 20
1491.2541559397889159
 30
0.0
 11
1573.6005992270679599
 21
1491.2541559397889159
 31
0.0
 12
1573.5705992270679872
 22
1491.0741559397890796
 32
0.0
 13
1573.5705992270679872
 23
1491.0741559397890796
 33
0.0
  0
INSERT
  5
391
  8
0
  2
*U9
 10
0.0
 20
0.0
 30
0.0
  0
POINT
  5
392
  8
DEFPOINTS
 62
     0
 10
1535.7224968439070381
 20
1609.0741559397890796
 30
0.0
  0
POINT
  5
393
  8
DEFPOINTS
 62
     0
 10
1535.7224968439079476
 20
1491.0741559397890796
 30
0.0
  0
POINT
  5
394
  8
DEFPOINTS
 62
     0
 10
1573.5705992270679872
 20
1491.0741559397890796
 30
0.0
  0
ENDBLK
  5
38A
  8
0
  0
BLOCK
  8
0
  2
*D5
 70
     1
 10
0.0
 20
0.0
 30
0.0
  3
*D5
  1

  0
LINE
  5
398
  8
0
 62
     0
 10
1062.1224968439069016
 20
1609.1366559397890796
 30
0.0
 11
1062.1224968439069016
 21
1631.2090337489310059
 31
0.0
  0
LINE
  5
399
  8
0
 62
     0
 10
1535.7224968439070381
 20
1609.1366559397890796
 30
0.0
 11
1535.7224968439070381
 21
1631.2090337489310059
 31
0.0
  0
LINE
  5
39A
  8
0
 62
     0
 10
1062.3024968439069653
 20
1631.0290337489309422
 30
0.0
 11
1298.3157028466350766
 21
1631.0290337489309422
 31
0.0
  0
LINE
  5
39B
  8
0
 62
     0
 10
1535.5424968439069744
 20
1631.0290337489309422
 30
0.0
 11
1299.5292908411779536
 21
1631.0290337489309422
 31
0.0
  0
SOLID
  5
39C
  8
0
 62
     0
 10
1062.3024968439069653
 20
1631.059033748930915
 30
0.0
 11
1062.3024968439069653
 21
1630.9990337489309695
 31
0.0
 12
1062.1224968439069016
 22
1631.0290337489309422
 32
0.0
 13
1062.1224968439069016
 23
1631.0290337489309422
 33
0.0
  0
SOLID
  5
39D
  8
0
 62
     0
 10
1535.5424968439069744
 20
1631.059033748930915
 30
0.0
 11
1535.5424968439069744
 21
1630.9990337489309695
 31
0.0
 12
1535.7224968439070381
 22
1631.0290337489309422
 32
0.0
 13
1535.7224968439070381
 23
1631.0290337489309422
 33
0.0
  0
INSERT
  5
39E
  8
0
  2
*U10
 10
0.0
 20
0.0
 30
0.0
  0
POINT
  5
39F
  8
DEFPOINTS
 62
     0
 10
1062.1224968439069016
 20
1609.0741559397879428
 30
0.0
  0
POINT
  5
3A0
  8
DEFPOINTS
 62
     0
 10
1535.7224968439070381
 20
1609.0741559397879428
 30
0.0
  0
POINT
  5
3A1
  8
DEFPOINTS
 62
     0
 10
1535.7224968439070381
 20
1631.0290337489309422
 30
0.0
  0
ENDBLK
  5
397
  8
0
  0
BLOCK
  8
0
  2
*U6
 70
     1
 10
0.0
 20
0.0
 30
0.0
  3
*U6
  1

  0
TEXT
  5
4C0
  8
0
 62
     0
 10
1536.2046148002189057
 20
1537.8340088085949446
 30
0.0
 40
5.0
  1
118.0000
  0
ENDBLK
  5
4C2
  8
0
  0
BLOCK
  8
0
  2
*U7
 70
     1
 10
0.0
 20
0.0
 30
0.0
  3
*U7
  1

  0
TEXT
  5
4C4
  8
0
 62
     0
 10
1261.8924605753129526
 20
1618.7905919383370019
 30
0.0
 40
5.0
  1
473.6000
  0
ENDBLK
  5
4C6
  8
0
  0
BLOCK
  8
0
  2
*U8
 70
     1
 10
0.0
 20
0.0
 30
0.0
  3
*U8
  1

  0
TEXT
  5
4C8
  8
0
 10
1234.6981968200079791
 20
1534.1199399796719263
 30
0.0
 40
5.0
  1
2mm
  0
ENDBLK
  5
4CA
  8
0
  0
BLOCK
  8
0
  2
*U9
 70
     1
 10
0.0
 20
0.0
 30
0.0
  3
*U9
  1

  0
TEXT
  5
4CC
  8
0
 62
     0
 10
1573.0385187359349857
 20
1549.9856907283290184
 30
0.0
 40
0.18
  1
118.0000
  0
ENDBLK
  5
4CE
  8
0
  0
BLOCK
  8
0
  2
*U10
 70
     1
 10
0.0
 20
0.0
 30
0.0
  3
*U10
  1

  0
TEXT
  5
4D0
  8
0
 62
     0
 10
1298.4025104864720106
 20
1630.9406299290130846
 30
0.0
 40
0.18
  1
473.6000
  0
ENDBLK
  5
4D2
  8
0
  0
ENDSEC
  0
SECTION
  2
ENTITIES
  0
CIRCLE
  5
2E8
  8
0
 10
1091.7224968439079476
 20
1603.0741743883759227
 30
0.0
 40
1.5
  0
CIRCLE
  5
2E9
  8
0
 10
1150.9224968439059467
 20
1603.0741743883759227
 30
0.0
 40
1.5
  0
CIRCLE
  5
2EA
  8
0
 10
1150.9224968439070835
 20
1497.0741374912010997
 30
0.0
 40
1.5
  0
CIRCLE
  5
2EB
  8
0
 10
1269.3224968439069471
 20
1603.0741743883759227
 30
0.0
 40
1.5
  0
CIRCLE
  5
2EC
  8
0
 10
1269.3224968439069471
 20
1497.0741374912010997
 30
0.0
 40
1.5
  0
CIRCLE
  5
2ED
  8
0
 10
1210.1224968439069016
 20
1603.0741743883759227
 30
0.0
 40
1.5
  0
CIRCLE
  5
2EE
  8
0
 10
1210.1224968439069016
 20
1497.0741374912010997
 30
0.0
 40
1.5
  0
LINE
  5
2EF
  8
0
 10
1535.7224968439079476
 20
1504.0741559397908986
 30
0.0
 11
1535.7224968439070381
 21
1596.0741559397908986
 31
0.0
  0
CIRCLE
  5
2F0
  8
0
 10
1506.1224968439069016
 20
1603.0741743883779691
 30
0.0
 40
1.5
  0
CIRCLE
  5
2F1
  8
0
 10
1506.1224968439080385
 20
1497.0741374912029187
 30
0.0
 40
1.5
  0
CIRCLE
  5
2F2
  8
0
 10
1446.9224968439059467
 20
1603.0741743883779691
 30
0.0
 40
1.5
  0
CIRCLE
  5
2F3
  8
0
 10
1446.9224968439070835
 20
1497.0741374912029187
 30
0.0
 40
1.5
  0
CIRCLE
  5
2F4
  8
0
 10
1328.5224968439069926
 20
1603.0741743883770596
 30
0.0
 40
1.5
  0
CIRCLE
  5
2F5
  8
0
 10
1328.5224968439079021
 20
1497.0741374912010997
 30
0.0
 40
1.5
  0
CIRCLE
  5
2F6
  8
0
 10
1387.7224968439070381
 20
1603.0741743883779691
 30
0.0
 40
1.5
  0
CIRCLE
  5
2F7
  8
0
 10
1387.7224968439079476
 20
1497.0741374912020092
 30
0.0
 40
1.5
  0
LINE
  5
2F8
  8
0
 10
1535.7224968439079476
 20
1504.0741559397908986
 30
0.0
 11
1535.7224968439079476
 21
1491.0741559397890796
 31
0.0
  0
LINE
  5
2FA
  8
0
 10
1535.7224968439070381
 20
1596.0741559397908986
 30
0.0
 11
1535.7224968439070381
 21
1609.0741559397908986
 31
0.0
  0
ARC
  5
2FB
  8
0
 10
1085.7224968439059012
 20
1497.0741374912010997
 30
0.0
 40
1.0
 50
0.0
 51
180.0
  0
LINE
  5
2FC
  8
0
 10
1086.7224968439070381
 20
1497.0741374912010997
 30
0.0
 11
1086.7224968439070381
 21
1491.0741559397879428
 31
0.0
  0
LINE
  5
2FD
  8
0
 10
1084.7224968439070381
 20
1497.0741374912010997
 30
0.0
 11
1084.7224968439070381
 21
1491.0741559397890796
 31
0.0
  0
LINE
  5
2FE
  8
0
 10
1096.7224968439070381
 20
1497.0741374912010997
 30
0.0
 11
1096.7224968439070381
 21
1491.0741559397879428
 31
0.0
  0
LINE
  5
2FF
  8
0
 10
1098.7224968439070381
 20
1497.0741374912010997
 30
0.0
 11
1098.7224968439070381
 21
1491.0741559397890796
 31
0.0
  0
ARC
  5
300
  8
0
 10
1156.9224968439070835
 20
1497.0741374912010997
 30
0.0
 40
1.0
 50
0.0
 51
180.0
  0
LINE
  5
301
  8
0
 10
1155.9224968439059467
 20
1497.0741374912010997
 30
0.0
 11
1155.9224968439059467
 21
1491.0741559397879428
 31
0.0
  0
LINE
  5
302
  8
0
 10
1157.9224968439059467
 20
1497.0741374912010997
 30
0.0
 11
1157.9224968439059467
 21
1491.0741559397890796
 31
0.0
  0
ARC
  5
303
  8
0
 10
1144.9224968439059467
 20
1497.0741374912010997
 30
0.0
 40
1.0
 50
0.0
 51
180.0
  0
LINE
  5
304
  8
0
 10
1145.9224968439070835
 20
1497.0741374912010997
 30
0.0
 11
1145.9224968439070835
 21
1491.0741559397879428
 31
0.0
  0
LINE
  5
305
  8
0
 10
1143.9224968439070835
 20
1497.0741374912010997
 30
0.0
 11
1143.9224968439070835
 21
1491.0741559397890796
 31
0.0
  0
ARC
  5
306
  8
0
 10
1275.3224968439069471
 20
1497.0741374912010997
 30
0.0
 40
1.0
 50
0.0
 51
180.0
  0
LINE
  5
307
  8
0
 10
1274.3224968439060376
 20
1497.0741374912010997
 30
0.0
 11
1274.3224968439060376
 21
1491.0741559397879428
 31
0.0
  0
LINE
  5
308
  8
0
 10
1276.3224968439060376
 20
1497.0741374912010997
 30
0.0
 11
1276.3224968439060376
 21
1491.0741559397890796
 31
0.0
  0
ARC
  5
309
  8
0
 10
1263.3224968439060376
 20
1497.0741374912010997
 30
0.0
 40
1.0
 50
0.0
 51
180.0
  0
LINE
  5
30A
  8
0
 10
1264.3224968439060376
 20
1497.0741374912010997
 30
0.0
 11
1264.3224968439060376
 21
1491.0741559397879428
 31
0.0
  0
LINE
  5
30B
  8
0
 10
1262.3224968439060376
 20
1497.0741374912010997
 30
0.0
 11
1262.3224968439060376
 21
1491.0741559397890796
 31
0.0
  0
ARC
  5
30C
  8
0
 10
1204.1224968439059921
 20
1497.0741374912010997
 30
0.0
 40
1.0
 50
0.0
 51
180.0
  0
LINE
  5
30D
  8
0
 10
1205.1224968439069016
 20
1497.0741374912010997
 30
0.0
 11
1205.1224968439069016
 21
1491.0741559397879428
 31
0.0
  0
LINE
  5
30E
  8
0
 10
1203.1224968439069016
 20
1497.0741374912010997
 30
0.0
 11
1203.1224968439069016
 21
1491.0741559397890796
 31
0.0
  0
ARC
  5
30F
  8
0
 10
1216.1224968439069016
 20
1497.0741374912010997
 30
0.0
 40
1.0
 50
0.0
 51
180.0
  0
LINE
  5
310
  8
0
 10
1215.1224968439069016
 20
1497.0741374912010997
 30
0.0
 11
1215.1224968439069016
 21
1491.0741559397879428
 31
0.0
  0
LINE
  5
311
  8
0
 10
1217.1224968439069016
 20
1497.0741374912010997
 30
0.0
 11
1217.1224968439069016
 21
1491.0741559397890796
 31
0.0
  0
ARC
  5
312
  8
0
 10
1512.1224968439069016
 20
1497.0741374912010997
 30
0.0
 40
1.0
 50
0.0
 51
180.0
  0
LINE
  5
313
  8
0
 10
1511.1224968439069016
 20
1497.0741374912010997
 30
0.0
 11
1511.1224968439069016
 21
1491.0741559397879428
 31
0.0
  0
LINE
  5
314
  8
0
 10
1513.1224968439069016
 20
1497.0741374912010997
 30
0.0
 11
1513.1224968439069016
 21
1491.0741559397890796
 31
0.0
  0
ARC
  5
315
  8
0
 10
1500.1224968439059921
 20
1497.0741374912010997
 30
0.0
 40
1.0
 50
0.0
 51
180.0
  0
LINE
  5
316
  8
0
 10
1501.1224968439069016
 20
1497.0741374912010997
 30
0.0
 11
1501.1224968439069016
 21
1491.0741559397879428
 31
0.0
  0
LINE
  5
317
  8
0
 10
1499.1224968439069016
 20
1497.0741374912010997
 30
0.0
 11
1499.1224968439069016
 21
1491.0741559397890796
 31
0.0
  0
ARC
  5
318
  8
0
 10
1440.9224968439059467
 20
1497.0741374912010997
 30
0.0
 40
1.0
 50
0.0
 51
180.0
  0
LINE
  5
319
  8
0
 10
1441.9224968439070835
 20
1497.0741374912010997
 30
0.0
 11
1441.9224968439070835
 21
1491.0741559397879428
 31
0.0
  0
LINE
  5
31A
  8
0
 10
1439.9224968439059467
 20
1497.0741374912010997
 30
0.0
 11
1439.9224968439059467
 21
1491.0741559397890796
 31
0.0
  0
ARC
  5
31B
  8
0
 10
1452.9224968439070835
 20
1497.0741374912010997
 30
0.0
 40
1.0
 50
0.0
 51
180.0
  0
LINE
  5
31C
  8
0
 10
1451.9224968439070835
 20
1497.0741374912010997
 30
0.0
 11
1451.9224968439070835
 21
1491.0741559397879428
 31
0.0
  0
LINE
  5
31D
  8
0
 10
1453.9224968439070835
 20
1497.0741374912010997
 30
0.0
 11
1453.9224968439070835
 21
1491.0741559397890796
 31
0.0
  0
ARC
  5
31E
  8
0
 10
1322.5224968439069926
 20
1497.0741374912010997
 30
0.0
 40
1.0
 50
0.0
 51
180.0
  0
LINE
  5
31F
  8
0
 10
1323.5224968439069926
 20
1497.0741374912010997
 30
0.0
 11
1323.5224968439069926
 21
1491.0741559397879428
 31
0.0
  0
LINE
  5
320
  8
0
 10
1321.5224968439069926
 20
1497.0741374912010997
 30
0.0
 11
1321.5224968439069926
 21
1491.0741559397890796
 31
0.0
  0
ARC
  5
321
  8
0
 10
1334.5224968439079021
 20
1497.0741374912010997
 30
0.0
 40
1.0
 50
0.0
 51
180.0
  0
LINE
  5
322
  8
0
 10
1333.5224968439069926
 20
1497.0741374912010997
 30
0.0
 11
1333.5224968439069926
 21
1491.0741559397879428
 31
0.0
  0
LINE
  5
323
  8
0
 10
1335.5224968439069926
 20
1497.0741374912010997
 30
0.0
 11
1335.5224968439069926
 21
1491.0741559397890796
 31
0.0
  0
ARC
  5
324
  8
0
 10
1393.7224968439070381
 20
1497.0741374912010997
 30
0.0
 40
1.0
 50
0.0
 51
180.0
  0
LINE
  5
325
  8
0
 10
1392.7224968439079476
 20
1497.0741374912010997
 30
0.0
 11
1392.7224968439079476
 21
1491.0741559397879428
 31
0.0
  0
LINE
  5
326
  8
0
 10
1394.7224968439079476
 20
1497.0741374912010997
 30
0.0
 11
1394.7224968439079476
 21
1491.0741559397890796
 31
0.0
  0
ARC
  5
327
  8
0
 10
1381.7224968439070381
 20
1497.0741374912010997
 30
0.0
 40
1.0
 50
0.0
 51
180.0
  0
LINE
  5
328
  8
0
 10
1382.7224968439079476
 20
1497.0741374912010997
 30
0.0
 11
1382.7224968439079476
 21
1491.0741559397879428
 31
0.0
  0
LINE
  5
329
  8
0
 10
1380.7224968439079476
 20
1497.0741374912010997
 30
0.0
 11
1380.7224968439079476
 21
1491.0741559397890796
 31
0.0
  0
LINE
  5
32B
  8
0
 10
1062.1224968439069016
 20
1491.0741559397890796
 30
0.0
 11
1062.1224968439069016
 21
1609.0741559397879428
 31
0.0
  0
LINE
  5
332
  8
0
 10
1062.1224968439069016
 20
1491.0741559397890796
 30
0.0
 11
1084.7224968439070381
 21
1491.0741559397890796
 31
0.0
  0
LINE
  5
333
  8
0
 10
1086.7224968439070381
 20
1491.0741559397890796
 30
0.0
 11
1096.7224968439070381
 21
1491.0741559397890796
 31
0.0
  0
LINE
  5
334
  8
0
 10
1098.7224968439070381
 20
1491.0741559397890796
 30
0.0
 11
1143.9224968439070835
 21
1491.0741559397890796
 31
0.0
  0
LINE
  5
335
  8
0
 10
1145.9224968439070835
 20
1491.0741559397890796
 30
0.0
 11
1155.9224968439059467
 21
1491.0741559397890796
 31
0.0
  0
LINE
  5
336
  8
0
 10
1157.9224968439059467
 20
1491.0741559397890796
 30
0.0
 11
1203.1224968439069016
 21
1491.0741559397890796
 31
0.0
  0
LINE
  5
337
  8
0
 10
1205.1224968439069016
 20
1491.0741559397890796
 30
0.0
 11
1215.1224968439069016
 21
1491.0741559397890796
 31
0.0
  0
LINE
  5
338
  8
0
 10
1217.1224968439069016
 20
1491.0741559397890796
 30
0.0
 11
1262.3224968439060376
 21
1491.0741559397890796
 31
0.0
  0
LINE
  5
339
  8
0
 10
1264.3224968439060376
 20
1491.0741559397890796
 30
0.0
 11
1274.3224968439060376
 21
1491.0741559397890796
 31
0.0
  0
LINE
  5
33A
  8
0
 10
1276.3224968439060376
 20
1491.0741559397890796
 30
0.0
 11
1298.9224968439059467
 21
1491.0741559397890796
 31
0.0
  0
LINE
  5
33B
  8
0
 10
1535.7224968439070381
 20
1491.0741559397890796
 30
0.0
 11
1513.1224968439069016
 21
1491.0741559397890796
 31
0.0
  0
LINE
  5
33C
  8
0
 10
1499.1224968439069016
 20
1491.0741559397890796
 30
0.0
 11
1453.9224968439070835
 21
1491.0741559397890796
 31
0.0
  0
LINE
  5
33D
  8
0
 10
1439.9224968439059467
 20
1491.0741559397890796
 30
0.0
 11
1394.7224968439079476
 21
1491.0741559397890796
 31
0.0
  0
LINE
  5
33E
  8
0
 10
1392.7224968439079476
 20
1491.0741559397890796
 30
0.0
 11
1382.7224968439079476
 21
1491.0741559397890796
 31
0.0
  0
LINE
  5
33F
  8
0
 10
1380.7224968439079476
 20
1491.0741559397890796
 30
0.0
 11
1335.5224968439069926
 21
1491.0741559397890796
 31
0.0
  0
LINE
  5
340
  8
0
 10
1333.5224968439069926
 20
1491.0741559397890796
 30
0.0
 11
1323.5224968439069926
 21
1491.0741559397890796
 31
0.0
  0
LINE
  5
341
  8
0
 10
1321.5224968439069926
 20
1491.0741559397890796
 30
0.0
 11
1298.9224968439059467
 21
1491.0741559397890796
 31
0.0
  0
LINE
  5
342
  8
0
 10
1441.9224968439070835
 20
1491.0741559397879428
 30
0.0
 11
1451.9224968439070835
 21
1491.0741559397879428
 31
0.0
  0
LINE
  5
343
  8
0
 10
1501.1224968439069016
 20
1491.0741559397879428
 30
0.0
 11
1511.1224968439069016
 21
1491.0741559397879428
 31
0.0
  0
ARC
  5
344
  8
0
 10
1076.9224968439070835
 20
1603.0741743883759227
 30
0.0
 40
1.0
 50
180.0
 51
0.0
  0
LINE
  5
345
  8
0
 10
1077.9224968439070835
 20
1603.0741743883759227
 30
0.0
 11
1077.9224968439070835
 21
1609.0741559397879428
 31
0.0
  0
LINE
  5
346
  8
0
 10
1075.9224968439070835
 20
1603.0741743883759227
 30
0.0
 11
1075.9224968439070835
 21
1609.0741559397879428
 31
0.0
  0
ARC
  5
347
  8
0
 10
1106.5224968439069926
 20
1603.0741743883759227
 30
0.0
 40
1.0
 50
180.0
 51
0.0
  0
LINE
  5
348
  8
0
 10
1105.5224968439069926
 20
1603.0741743883759227
 30
0.0
 11
1105.5224968439069926
 21
1609.0741559397879428
 31
0.0
  0
LINE
  5
349
  8
0
 10
1107.5224968439069926
 20
1603.0741743883759227
 30
0.0
 11
1107.5224968439069926
 21
1609.0741559397879428
 31
0.0
  0
ARC
  5
34A
  8
0
 10
1165.7224968439070381
 20
1603.0741743883759227
 30
0.0
 40
1.0
 50
180.0
 51
0.0
  0
LINE
  5
34B
  8
0
 10
1164.7224968439070381
 20
1603.0741743883759227
 30
0.0
 11
1164.7224968439070381
 21
1609.0741559397879428
 31
0.0
  0
LINE
  5
34C
  8
0
 10
1166.7224968439070381
 20
1603.0741743883759227
 30
0.0
 11
1166.7224968439070381
 21
1609.0741559397879428
 31
0.0
  0
ARC
  5
34D
  8
0
 10
1136.1224968439069016
 20
1603.0741743883759227
 30
0.0
 40
1.0
 50
180.0
 51
0.0
  0
LINE
  5
34E
  8
0
 10
1137.1224968439069016
 20
1603.0741743883759227
 30
0.0
 11
1137.1224968439069016
 21
1609.0741559397879428
 31
0.0
  0
LINE
  5
34F
  8
0
 10
1135.1224968439069016
 20
1603.0741743883759227
 30
0.0
 11
1135.1224968439069016
 21
1609.0741559397879428
 31
0.0
  0
ARC
  5
350
  8
0
 10
1284.1224968439059921
 20
1603.0741743883759227
 30
0.0
 40
1.0
 50
180.0
 51
0.0
  0
LINE
  5
351
  8
0
 10
1283.1224968439059921
 20
1603.0741743883759227
 30
0.0
 11
1283.1224968439059921
 21
1609.0741559397879428
 31
0.0
  0
LINE
  5
352
  8
0
 10
1285.1224968439059921
 20
1603.0741743883759227
 30
0.0
 11
1285.1224968439059921
 21
1609.0741559397879428
 31
0.0
  0
ARC
  5
353
  8
0
 10
1254.5224968439069926
 20
1603.0741743883759227
 30
0.0
 40
1.0
 50
180.0
 51
0.0
  0
LINE
  5
354
  8
0
 10
1255.5224968439069926
 20
1603.0741743883759227
 30
0.0
 11
1255.5224968439069926
 21
1609.0741559397879428
 31
0.0
  0
LINE
  5
355
  8
0
 10
1253.5224968439069926
 20
1603.0741743883759227
 30
0.0
 11
1253.5224968439069926
 21
1609.0741559397879428
 31
0.0
  0
ARC
  5
356
  8
0
 10
1195.3224968439069471
 20
1603.0741743883759227
 30
0.0
 40
1.0
 50
180.0
 51
0.0
  0
LINE
  5
357
  8
0
 10
1196.3224968439069471
 20
1603.0741743883759227
 30
0.0
 11
1196.3224968439069471
 21
1609.0741559397879428
 31
0.0
  0
LINE
  5
358
  8
0
 10
1194.3224968439069471
 20
1603.0741743883759227
 30
0.0
 11
1194.3224968439069471
 21
1609.0741559397879428
 31
0.0
  0
ARC
  5
359
  8
0
 10
1224.9224968439059467
 20
1603.0741743883759227
 30
0.0
 40
1.0
 50
180.0
 51
0.0
  0
LINE
  5
35A
  8
0
 10
1223.9224968439059467
 20
1603.0741743883759227
 30
0.0
 11
1223.9224968439059467
 21
1609.0741559397879428
 31
0.0
  0
LINE
  5
35B
  8
0
 10
1225.9224968439070835
 20
1603.0741743883759227
 30
0.0
 11
1225.9224968439070835
 21
1609.0741559397879428
 31
0.0
  0
ARC
  5
35C
  8
0
 10
1520.9224968439070835
 20
1603.0741743883759227
 30
0.0
 40
1.0
 50
180.0
 51
0.0
  0
LINE
  5
35D
  8
0
 10
1519.9224968439059467
 20
1603.0741743883759227
 30
0.0
 11
1519.9224968439059467
 21
1609.0741559397879428
 31
0.0
  0
LINE
  5
35E
  8
0
 10
1521.9224968439059467
 20
1603.0741743883759227
 30
0.0
 11
1521.9224968439059467
 21
1609.0741559397879428
 31
0.0
  0
ARC
  5
35F
  8
0
 10
1491.3224968439069471
 20
1603.0741743883759227
 30
0.0
 40
1.0
 50
180.0
 51
0.0
  0
LINE
  5
360
  8
0
 10
1492.3224968439069471
 20
1603.0741743883759227
 30
0.0
 11
1492.3224968439069471
 21
1609.0741559397879428
 31
0.0
  0
LINE
  5
361
  8
0
 10
1490.3224968439069471
 20
1603.0741743883759227
 30
0.0
 11
1490.3224968439069471
 21
1609.0741559397879428
 31
0.0
  0
ARC
  5
362
  8
0
 10
1432.1224968439069016
 20
1603.0741743883759227
 30
0.0
 40
1.0
 50
180.0
 51
0.0
  0
LINE
  5
363
  8
0
 10
1433.1224968439069016
 20
1603.0741743883759227
 30
0.0
 11
1433.1224968439069016
 21
1609.0741559397879428
 31
0.0
  0
LINE
  5
364
  8
0
 10
1431.1224968439069016
 20
1603.0741743883759227
 30
0.0
 11
1431.1224968439069016
 21
1609.0741559397879428
 31
0.0
  0
ARC
  5
365
  8
0
 10
1461.7224968439070381
 20
1603.0741743883759227
 30
0.0
 40
1.0
 50
180.0
 51
0.0
  0
LINE
  5
366
  8
0
 10
1460.7224968439070381
 20
1603.0741743883759227
 30
0.0
 11
1460.7224968439070381
 21
1609.0741559397879428
 31
0.0
  0
LINE
  5
367
  8
0
 10
1462.7224968439059012
 20
1603.0741743883759227
 30
0.0
 11
1462.7224968439059012
 21
1609.0741559397879428
 31
0.0
  0
ARC
  5
368
  8
0
 10
1313.7224968439079476
 20
1603.0741743883759227
 30
0.0
 40
1.0
 50
180.0
 51
0.0
  0
LINE
  5
369
  8
0
 10
1314.7224968439079476
 20
1603.0741743883759227
 30
0.0
 11
1314.7224968439079476
 21
1609.0741559397879428
 31
0.0
  0
LINE
  5
36A
  8
0
 10
1312.7224968439079476
 20
1603.0741743883759227
 30
0.0
 11
1312.7224968439079476
 21
1609.0741559397879428
 31
0.0
  0
ARC
  5
36B
  8
0
 10
1343.3224968439069471
 20
1603.0741743883759227
 30
0.0
 40
1.0
 50
180.0
 51
0.0
  0
LINE
  5
36C
  8
0
 10
1342.3224968439069471
 20
1603.0741743883759227
 30
0.0
 11
1342.3224968439069471
 21
1609.0741559397879428
 31
0.0
  0
LINE
  5
36D
  8
0
 10
1344.3224968439069471
 20
1603.0741743883759227
 30
0.0
 11
1344.3224968439069471
 21
1609.0741559397879428
 31
0.0
  0
ARC
  5
36E
  8
0
 10
1402.5224968439069926
 20
1603.0741743883759227
 30
0.0
 40
1.0
 50
180.0
 51
0.0
  0
LINE
  5
36F
  8
0
 10
1401.5224968439069926
 20
1603.0741743883759227
 30
0.0
 11
1401.5224968439069926
 21
1609.0741559397879428
 31
0.0
  0
LINE
  5
370
  8
0
 10
1403.5224968439069926
 20
1603.0741743883759227
 30
0.0
 11
1403.5224968439069926
 21
1609.0741559397879428
 31
0.0
  0
ARC
  5
371
  8
0
 10
1372.9224968439070835
 20
1603.0741743883759227
 30
0.0
 40
1.0
 50
180.0
 51
0.0
  0
LINE
  5
372
  8
0
 10
1373.9224968439070835
 20
1603.0741743883759227
 30
0.0
 11
1373.9224968439070835
 21
1609.0741559397879428
 31
0.0
  0
LINE
  5
373
  8
0
 10
1371.9224968439070835
 20
1603.0741743883759227
 30
0.0
 11
1371.9224968439070835
 21
1609.0741559397879428
 31
0.0
  0
LINE
  5
374
  8
0
 10
1062.1224968439069016
 20
1609.0741559397879428
 30
0.0
 11
1075.9224968439070835
 21
1609.0741559397879428
 31
0.0
  0
LINE
  5
375
  8
0
 10
1077.9224968439070835
 20
1609.0741559397879428
 30
0.0
 11
1105.5224968439069926
 21
1609.0741559397879428
 31
0.0
  0
LINE
  5
376
  8
0
 10
1107.5224968439069926
 20
1609.0741559397879428
 30
0.0
 11
1135.1224968439069016
 21
1609.0741559397879428
 31
0.0
  0
LINE
  5
377
  8
0
 10
1137.1224968439069016
 20
1609.0741559397879428
 30
0.0
 11
1164.7224968439070381
 21
1609.0741559397879428
 31
0.0
  0
LINE
  5
378
  8
0
 10
1166.7224968439070381
 20
1609.0741559397879428
 30
0.0
 11
1194.3224968439069471
 21
1609.0741559397879428
 31
0.0
  0
LINE
  5
379
  8
0
 10
1196.3224968439069471
 20
1609.0741559397879428
 30
0.0
 11
1223.9224968439059467
 21
1609.0741559397879428
 31
0.0
  0
LINE
  5
37A
  8
0
 10
1225.9224968439070835
 20
1609.0741559397879428
 30
0.0
 11
1253.5224968439069926
 21
1609.0741559397879428
 31
0.0
  0
LINE
  5
37B
  8
0
 10
1255.5224968439069926
 20
1609.0741559397879428
 30
0.0
 11
1283.1224968439059921
 21
1609.0741559397879428
 31
0.0
  0
LINE
  5
37C
  8
0
 10
1535.7224968439070381
 20
1609.0741559397879428
 30
0.0
 11
1521.9224968439059467
 21
1609.0741559397879428
 31
0.0
  0
LINE
  5
37D
  8
0
 10
1519.9224968439059467
 20
1609.0741559397879428
 30
0.0
 11
1492.3224968439069471
 21
1609.0741559397879428
 31
0.0
  0
LINE
  5
37E
  8
0
 10
1490.3224968439069471
 20
1609.0741559397879428
 30
0.0
 11
1462.7224968439059012
 21
1609.0741559397879428
 31
0.0
  0
LINE
  5
37F
  8
0
 10
1460.7224968439070381
 20
1609.0741559397879428
 30
0.0
 11
1433.1224968439069016
 21
1609.0741559397879428
 31
0.0
  0
LINE
  5
380
  8
0
 10
1431.1224968439069016
 20
1609.0741559397879428
 30
0.0
 11
1403.5224968439069926
 21
1609.0741559397879428
 31
0.0
  0
LINE
  5
381
  8
0
 10
1401.5224968439069926
 20
1609.0741559397879428
 30
0.0
 11
1373.9224968439070835
 21
1609.0741559397879428
 31
0.0
  0
LINE
  5
382
  8
0
 10
1371.9224968439070835
 20
1609.0741559397879428
 30
0.0
 11
1344.3224968439069471
 21
1609.0741559397879428
 31
0.0
  0
LINE
  5
383
  8
0
 10
1342.3224968439069471
 20
1609.0741559397879428
 30
0.0
 11
1314.7224968439079476
 21
1609.0741559397879428
 31
0.0
  0
LINE
  5
384
  8
0
 10
1312.7224968439079476
 20
1609.0741559397879428
 30
0.0
 11
1285.1224968439059921
 21
1609.0741559397879428
 31
0.0
  0
ARC
  5
386
  8
0
 10
1097.7224968439079476
 20
1497.0741374912010997
 30
0.0
 40
1.0
 50
0.0
 51
180.0
  0
CIRCLE
  5
387
  8
0
 10
1091.7224968439079476
 20
1497.0741374912010997
 30
0.0
 40
1.5
  0
ENDSEC
  0
EOF
