  0
SECTION
  2
HEADER
  9
$ACADVER
  1
AC1009
  9
$INSBASE
 10
0.0
 20
0.0
 30
0.0
  9
$EXTMIN
 10
13049.9922041393401742
 20
3677.9284371670250948
 30
0.0
  9
$EXTMAX
 10
14523.1376183310494525
 20
4208.6271496878771359
 30
0.0
  9
$LIMMIN
 10
0.0
 20
0.0
  9
$LIMMAX
 10
12.0
 20
9.0
  9
$ORTHOMODE
 70
     0
  9
$REGENMODE
 70
     1
  9
$FILLMODE
 70
     1
  9
$QTEXTMODE
 70
     0
  9
$MIRRTEXT
 70
     0
  9
$DRAGMODE
 70
     2
  9
$LTSCALE
 40
1.0
  9
$OSMODE
 70
    37
  9
$ATTMODE
 70
     1
  9
$TEXTSIZE
 40
0.2
  9
$TRACEWID
 40
0.05
  9
$TEXTSTYLE
  7
STANDARD
  9
$CLAYER
  8
0
  9
$CELTYPE
  6
BYLAYER
  9
$CECOLOR
 62
   256
  9
$DIMSCALE
 40
1.0
  9
$DIMASZ
 40
0.18
  9
$DIMEXO
 40
0.0625
  9
$DIMDLI
 40
0.38
  9
$DIMRND
 40
0.0
  9
$DIMDLE
 40
0.0
  9
$DIMEXE
 40
0.18
  9
$DIMTP
 40
0.0
  9
$DIMTM
 40
0.0
  9
$DIMTXT
 40
0.18
  9
$DIMCEN
 40
0.09
  9
$DIMTSZ
 40
0.0
  9
$DIMTOL
 70
     0
  9
$DIMLIM
 70
     0
  9
$DIMTIH
 70
     1
  9
$DIMTOH
 70
     1
  9
$DIMSE1
 70
     0
  9
$DIMSE2
 70
     0
  9
$DIMTAD
 70
     0
  9
$DIMZIN
 70
     0
  9
$DIMBLK
  1

  9
$DIMASO
 70
     1
  9
$DIMSHO
 70
     1
  9
$DIMPOST
  1

  9
$DIMAPOST
  1

  9
$DIMALT
 70
     0
  9
$DIMALTD
 70
     2
  9
$DIMALTF
 40
25.3999999999999986
  9
$DIMLFAC
 40
1.0
  9
$DIMTOFL
 70
     0
  9
$DIMTVP
 40
0.0
  9
$DIMTIX
 70
     0
  9
$DIMSOXD
 70
     0
  9
$DIMSAH
 70
     0
  9
$DIMBLK1
  1

  9
$DIMBLK2
  1

  9
$DIMSTYLE
  2
STANDARD
  9
$DIMCLRD
 70
     0
  9
$DIMCLRE
 70
     0
  9
$DIMCLRT
 70
     0
  9
$DIMTFAC
 40
1.0
  9
$DIMGAP
 40
0.09
  9
$LUNITS
 70
     2
  9
$LUPREC
 70
     4
  9
$SKETCHINC
 40
0.1
  9
$FILLETRAD
 40
0.0
  9
$AUNITS
 70
     0
  9
$AUPREC
 70
     0
  9
$MENU
  1
.
  9
$ELEVATION
 40
0.0
  9
$PELEVATION
 40
0.0
  9
$THICKNESS
 40
0.0
  9
$LIMCHECK
 70
     0
  9
$BLIPMODE
 70
     0
  9
$CHAMFERA
 40
0.0
  9
$CHAMFERB
 40
0.0
  9
$SKPOLY
 70
     0
  9
$TDCREATE
 40
2458864.9184259260073304
  9
$TDUPDATE
 40
2458865.0111805549822748
  9
$TDINDWG
 40
0.0652662037
  9
$TDUSRTIMER
 40
0.0652662037
  9
$USRTIMER
 70
     1
  9
$ANGBASE
 50
0.0
  9
$ANGDIR
 70
     0
  9
$PDMODE
 70
     0
  9
$PDSIZE
 40
0.0
  9
$PLINEWID
 40
0.0
  9
$COORDS
 70
     1
  9
$SPLFRAME
 70
     0
  9
$SPLINETYPE
 70
     6
  9
$SPLINESEGS
 70
     8
  9
$ATTDIA
 70
     1
  9
$ATTREQ
 70
     1
  9
$HANDLING
 70
     1
  9
$HANDSEED
  5
7B2
  9
$SURFTAB1
 70
     6
  9
$SURFTAB2
 70
     6
  9
$SURFTYPE
 70
     6
  9
$SURFU
 70
     6
  9
$SURFV
 70
     6
  9
$UCSNAME
  2

  9
$UCSORG
 10
0.0
 20
0.0
 30
0.0
  9
$UCSXDIR
 10
1.0
 20
0.0
 30
0.0
  9
$UCSYDIR
 10
0.0
 20
1.0
 30
0.0
  9
$PUCSNAME
  2

  9
$PUCSORG
 10
0.0
 20
0.0
 30
0.0
  9
$PUCSXDIR
 10
1.0
 20
0.0
 30
0.0
  9
$PUCSYDIR
 10
0.0
 20
1.0
 30
0.0
  9
$USERI1
 70
     0
  9
$USERI2
 70
     0
  9
$USERI3
 70
     0
  9
$USERI4
 70
     0
  9
$USERI5
 70
     0
  9
$USERR1
 40
0.0
  9
$USERR2
 40
0.0
  9
$USERR3
 40
0.0
  9
$USERR4
 40
0.0
  9
$USERR5
 40
2.5
  9
$WORLDVIEW
 70
     1
  9
$SHADEDGE
 70
     3
  9
$SHADEDIF
 70
    70
  9
$TILEMODE
 70
     1
  9
$MAXACTVP
 70
    64
  9
$PLIMCHECK
 70
     0
  9
$PEXTMIN
 10
0.0
 20
0.0
 30
0.0
  9
$PEXTMAX
 10
0.0
 20
0.0
 30
0.0
  9
$PLIMMIN
 10
0.0
 20
0.0
  9
$PLIMMAX
 10
12.0
 20
9.0
  9
$UNITMODE
 70
     0
  9
$VISRETAIN
 70
     1
  9
$PLINEGEN
 70
     0
  9
$PSLTSCALE
 70
     1
  0
ENDSEC
  0
SECTION
  2
TABLES
  0
TABLE
  2
VPORT
 70
     1
  0
VPORT
  2
*ACTIVE
 70
     0
 10
0.0
 20
0.0
 11
1.0
 21
1.0
 12
13432.7771407241198176
 22
3993.7407727045251704
 13
0.0
 23
0.0
 14
0.5
 24
0.5
 15
0.5
 25
0.5
 16
0.0
 26
0.0
 36
1.0
 17
0.0
 27
0.0
 37
0.0
 40
740.9994507386707028
 41
2.4139240506329109
 42
50.0
 43
0.0
 44
0.0
 50
0.0
 51
0.0
 71
     0
 72
  1000
 73
     1
 74
     3
 75
     0
 76
     1
 77
     0
 78
     0
  0
ENDTAB
  0
TABLE
  2
LTYPE
 70
     2
  0
LTYPE
  2
CONTINUOUS
 70
     0
  3
Solid line
 72
    65
 73
     0
 40
0.0
  0
ENDTAB
  0
TABLE
  2
LAYER
 70
     2
  0
LAYER
  2
0
 70
     0
 62
     7
  6
CONTINUOUS
  0
LAYER
  2
DEFPOINTS
 70
     0
 62
     7
  6
CONTINUOUS
  0
ENDTAB
  0
TABLE
  2
STYLE
 70
     2
  0
STYLE
  2
STANDARD
 70
     0
 40
0.0
 41
1.0
 50
0.0
 71
     0
 42
0.2
  3
txt
  4

  0
STYLE
  2
ANNOTATIVE
 70
     0
 40
0.0
 41
1.0
 50
0.0
 71
     0
 42
0.2
  3
txt
  4

  0
ENDTAB
  0
TABLE
  2
VIEW
 70
     0
  0
ENDTAB
  0
TABLE
  2
UCS
 70
     0
  0
ENDTAB
  0
TABLE
  2
APPID
 70
     9
  0
APPID
  2
ACAD
 70
     0
  0
APPID
  2
ACADANNOTATIVE
 70
     0
  0
APPID
  2
ACADANNOPO
 70
     0
  0
APPID
  2
ACAD_DSTYLE_DIMJAG
 70
     0
  0
APPID
  2
ACAD_DSTYLE_DIMTALN
 70
     0
  0
APPID
  2
ACAD_MLEADERVER
 70
     0
  0
APPID
  2
ACAD_NAV_VCDISPLAY
 70
     0
  0
APPID
  2
ACAD_PSEXT
 70
     0
  0
APPID
  2
ACAD_EXEMPT_FROM_CAD_STANDARDS
 70
     0
  0
ENDTAB
  0
TABLE
  2
DIMSTYLE
 70
     3
  0
DIMSTYLE
  2
STANDARD
 70
     0
  3

  4

  5

  6

  7

 40
1.0
 41
0.18
 42
0.0625
 43
0.38
 44
0.18
 45
0.0
 46
0.0
 47
0.0
 48
0.0
140
0.18
141
0.09
142
0.0
143
25.3999999999999986
144
1.0
145
0.0
146
1.0
147
0.09
 71
     0
 72
     0
 73
     1
 74
     1
 75
     0
 76
     0
 77
     0
 78
     0
170
     0
171
     2
172
     0
173
     0
174
     0
175
     0
176
     0
177
     0
178
     0
  0
DIMSTYLE
  2
ANNOTATIVE
 70
     0
  3

  4

  5

  6

  7

 40
0.0
 41
0.18
 42
0.0625
 43
0.38
 44
0.18
 45
0.0
 46
0.0
 47
0.0
 48
0.0
140
0.18
141
0.09
142
0.0
143
25.3999999999999986
144
1.0
145
0.0
146
1.0
147
0.09
 71
     0
 72
     0
 73
     1
 74
     1
 75
     0
 76
     0
 77
     0
 78
     0
170
     0
171
     2
172
     0
173
     0
174
     0
175
     0
176
     0
177
     0
178
     0
  0
ENDTAB
  0
ENDSEC
  0
SECTION
  2
BLOCKS
  0
BLOCK
  8
0
  2
$MODEL_SPACE
 70
     0
 10
0.0
 20
0.0
 30
0.0
  3
$MODEL_SPACE
  1

  0
ENDBLK
  5
64F
  8
0
  0
BLOCK
 67
     1
  8
0
  2
$PAPER_SPACE
 70
     0
 10
0.0
 20
0.0
 30
0.0
  3
$PAPER_SPACE
  1

  0
ENDBLK
  5
64B
 67
     1
  8
0
  0
BLOCK
  8
0
  2
*D2
 70
     1
 10
0.0
 20
0.0
 30
0.0
  3
*D2
  1

  0
LINE
  5
227
  8
0
 62
     0
 10
13923.8044106359993748
 20
4103.8822380834180876
 30
0.0
 11
13923.8044106359993748
 21
4175.0872046828553721
 31
0.0
  0
LINE
  5
228
  8
0
 62
     0
 10
14103.7315166432999831
 20
4137.3136955884956478
 30
0.0
 11
14103.7315166432999831
 21
4175.0872046828553721
 31
0.0
  0
LINE
  5
229
  8
0
 62
     0
 10
13923.9844106359996658
 20
4174.907204682855081
 30
0.0
 11
14000.1326021116801712
 21
4174.907204682855081
 31
0.0
  0
LINE
  5
22A
  8
0
 62
     0
 10
14103.5515166432996921
 20
4174.907204682855081
 30
0.0
 11
14027.4033251676191867
 21
4174.907204682855081
 31
0.0
  0
SOLID
  5
22B
  8
0
 62
     0
 10
13923.9844106359996658
 20
4174.9372046828539169
 30
0.0
 11
13923.9844106359996658
 21
4174.8772046828553357
 31
0.0
 12
13923.8044106359993748
 22
4174.907204682855081
 32
0.0
 13
13923.8044106359993748
 23
4174.907204682855081
 33
0.0
  0
SOLID
  5
22C
  8
0
 62
     0
 10
14103.5515166432996921
 20
4174.9372046828539169
 30
0.0
 11
14103.5515166432996921
 21
4174.8772046828553357
 31
0.0
 12
14103.7315166432999831
 22
4174.907204682855081
 32
0.0
 13
14103.7315166432999831
 23
4174.907204682855081
 33
0.0
  0
INSERT
  5
22D
  8
0
  2
*U3
 10
0.0
 20
0.0
 30
0.0
  0
POINT
  5
22E
  8
DEFPOINTS
 62
     0
 10
13923.8044106359993748
 20
4103.8197380834171781
 30
0.0
  0
POINT
  5
22F
  8
DEFPOINTS
 62
     0
 10
14103.7315166432999831
 20
4137.2511955884956478
 30
0.0
  0
POINT
  5
230
  8
DEFPOINTS
 62
     0
 10
14103.7315166432999831
 20
4174.907204682855081
 30
0.0
  0
ENDBLK
  5
231
  8
0
  0
BLOCK
  8
0
  2
*U3
 70
     1
 10
0.0
 20
0.0
 30
0.0
  3
*U3
  1

  0
TEXT
  5
5C0
  8
0
 62
     0
 10
13999.4620291239607468
 20
4172.4498376978626766
 30
0.0
 40
5.0
  1
179.9271
  0
ENDBLK
  5
5C2
  8
0
  0
BLOCK
  8
0
  2
*D4
 70
     1
 10
0.0
 20
0.0
 30
0.0
  3
*D4
  1

  0
LINE
  5
234
  8
0
 62
     0
 10
13967.173368141080573
 20
4147.2511955884983763
 30
0.0
 11
13867.1966498463498283
 21
4147.2511955884983763
 31
0.0
  0
LINE
  5
235
  8
0
 62
     0
 10
14060.2375591382206039
 20
3887.2511955884970121
 30
0.0
 11
13867.1966498463498283
 21
3887.2511955884970121
 31
0.0
  0
LINE
  5
236
  8
0
 62
     0
 10
13867.3766498463501193
 20
4147.0711955884962663
 30
0.0
 11
13867.3766498463501193
 21
4019.8940605271041022
 31
0.0
  0
LINE
  5
237
  8
0
 62
     0
 10
13867.3766498463501193
 20
3887.4311955884991221
 30
0.0
 11
13867.3766498463501193
 21
4014.6083306498881029
 31
0.0
  0
SOLID
  5
238
  8
0
 62
     0
 10
13867.3466498463494645
 20
4147.0711955884962663
 30
0.0
 11
13867.4066498463507742
 21
4147.0711955884962663
 31
0.0
 12
13867.3766498463501193
 22
4147.2511955884983763
 32
0.0
 13
13867.3766498463501193
 23
4147.2511955884983763
 33
0.0
  0
SOLID
  5
239
  8
0
 62
     0
 10
13867.3466498463494645
 20
3887.4311955884991221
 30
0.0
 11
13867.4066498463507742
 21
3887.4311955884991221
 31
0.0
 12
13867.3766498463501193
 22
3887.2511955884970121
 32
0.0
 13
13867.3766498463501193
 23
3887.2511955884970121
 33
0.0
  0
INSERT
  5
23A
  8
0
  2
*U5
 10
0.0
 20
0.0
 30
0.0
  0
POINT
  5
23B
  8
DEFPOINTS
 62
     0
 10
13967.235868141080573
 20
4147.2511955884983763
 30
0.0
  0
POINT
  5
23C
  8
DEFPOINTS
 62
     0
 10
14060.3000591382296989
 20
3887.2511955884970121
 30
0.0
  0
POINT
  5
23D
  8
DEFPOINTS
 62
     0
 10
13867.3766498463501193
 20
3887.2511955884970121
 30
0.0
  0
ENDBLK
  5
23E
  8
0
  0
BLOCK
  8
0
  2
*U5
 70
     1
 10
0.0
 20
0.0
 30
0.0
  3
*U5
  1

  0
TEXT
  5
5C4
  8
0
 62
     0
 10
13852.8746034616306133
 20
4014.7938286035000601
 30
0.0
 40
5.0
  1
260.0000
  0
ENDBLK
  5
5C6
  8
0
  0
BLOCK
  8
0
  2
*D6
 70
     1
 10
0.0
 20
0.0
 30
0.0
  3
*D6
  1

  0
LINE
  5
241
  8
0
 62
     0
 10
13592.495245871879888
 20
3945.3363097753349393
 30
0.0
 11
13592.495245871879888
 21
4053.3575690474858675
 31
0.0
  0
LINE
  5
242
  8
0
 62
     0
 10
13053.3848477493302198
 20
3945.3363097753349393
 30
0.0
 11
13053.3848477493302198
 21
4053.3575690474858675
 31
0.0
  0
LINE
  5
243
  8
0
 62
     0
 10
13592.315245871879597
 20
4053.1775690474869407
 30
0.0
 11
13337.2831163876908249
 21
4053.1775690474869407
 31
0.0
  0
LINE
  5
244
  8
0
 62
     0
 10
13053.5648477493305109
 20
4053.1775690474869407
 30
0.0
 11
13308.5969772335301968
 21
4053.1775690474869407
 31
0.0
  0
SOLID
  5
245
  8
0
 62
     0
 10
13592.315245871879597
 20
4053.2075690474857765
 30
0.0
 11
13592.315245871879597
 21
4053.1475690474849216
 31
0.0
 12
13592.495245871879888
 22
4053.1775690474869407
 32
0.0
 13
13592.495245871879888
 23
4053.1775690474869407
 33
0.0
  0
SOLID
  5
246
  8
0
 62
     0
 10
13053.5648477493305109
 20
4053.2075690474857765
 30
0.0
 11
13053.5648477493305109
 21
4053.1475690474849216
 31
0.0
 12
13053.3848477493302198
 22
4053.1775690474869407
 32
0.0
 13
13053.3848477493302198
 23
4053.1775690474869407
 33
0.0
  0
INSERT
  5
247
  8
0
  2
*U7
 10
0.0
 20
0.0
 30
0.0
  0
POINT
  5
248
  8
DEFPOINTS
 62
     0
 10
13592.495245871879888
 20
3945.2738097753358488
 30
0.0
  0
POINT
  5
249
  8
DEFPOINTS
 62
     0
 10
13053.3848477493302198
 20
3945.2738097753358488
 30
0.0
  0
POINT
  5
24A
  8
DEFPOINTS
 62
     0
 10
13053.3848477493302198
 20
4053.1775690474869407
 30
0.0
  0
ENDBLK
  5
24B
  8
0
  0
BLOCK
  8
0
  2
*U7
 70
     1
 10
0.0
 20
0.0
 30
0.0
  3
*U7
  1

  0
TEXT
  5
5C8
  8
0
 62
     0
 10
13308.3970727314808755
 20
4050.7219073830938214
 30
0.0
 40
5.0
  1
539.1104
  0
ENDBLK
  5
5CA
  8
0
  0
BLOCK
  8
0
  2
*D8
 70
     1
 10
0.0
 20
0.0
 30
0.0
  3
*D8
  1

  0
LINE
  5
24E
  8
0
 62
     0
 10
13071.542892834650047
 20
4013.2738097753399416
 30
0.0
 11
13028.5037063075196784
 21
4013.2738097753399416
 31
0.0
  0
LINE
  5
24F
  8
0
 62
     0
 10
13071.542892834650047
 20
3877.273809775348127
 30
0.0
 11
13028.5037063075196784
 21
3877.273809775348127
 31
0.0
  0
LINE
  5
250
  8
0
 62
     0
 10
13028.6837063075199694
 20
4013.0938097753401053
 30
0.0
 11
13028.6837063075199694
 21
3947.9183800345531381
 31
0.0
  0
LINE
  5
251
  8
0
 62
     0
 10
13028.6837063075199694
 20
3877.4538097753479633
 30
0.0
 11
13028.6837063075199694
 21
3942.6292395161349305
 31
0.0
  0
SOLID
  5
252
  8
0
 62
     0
 10
13028.6537063075193146
 20
4013.0938097753401053
 30
0.0
 11
13028.7137063075206243
 21
4013.0938097753401053
 31
0.0
 12
13028.6837063075199694
 22
4013.2738097753399416
 32
0.0
 13
13028.6837063075199694
 23
4013.2738097753399416
 33
0.0
  0
SOLID
  5
253
  8
0
 62
     0
 10
13028.6537063075193146
 20
3877.4538097753479633
 30
0.0
 11
13028.7137063075206243
 21
3877.4538097753479633
 31
0.0
 12
13028.6837063075199694
 22
3877.273809775348127
 32
0.0
 13
13028.6837063075199694
 23
3877.273809775348127
 33
0.0
  0
INSERT
  5
254
  8
0
  2
*U9
 10
0.0
 20
0.0
 30
0.0
  0
POINT
  5
255
  8
DEFPOINTS
 62
     0
 10
13071.605392834650047
 20
4013.2738097753399416
 30
0.0
  0
POINT
  5
256
  8
DEFPOINTS
 62
     0
 10
13071.605392834650047
 20
3877.273809775348127
 30
0.0
  0
POINT
  5
257
  8
DEFPOINTS
 62
     0
 10
13028.6837063075199694
 20
3877.273809775348127
 30
0.0
  0
ENDBLK
  5
258
  8
0
  0
BLOCK
  8
0
  2
*U9
 70
     1
 10
0.0
 20
0.0
 30
0.0
  3
*U9
  1

  0
TEXT
  5
5CC
  8
0
 62
     0
 10
13013.9036926649405359
 20
3942.8181481109459128
 30
0.0
 40
5.0
  1
136.0000
  0
ENDBLK
  5
5CE
  8
0
  0
BLOCK
  8
0
  2
*D10
 70
     1
 10
0.0
 20
0.0
 30
0.0
  3
*D10
  1

  0
LINE
  5
52F
  8
0
 62
     0
 10
13920.4117670260093291
 20
4113.4733073825136671
 30
0.0
 11
13920.4117670260093291
 21
4184.6782739819500421
 31
0.0
  0
LINE
  5
530
  8
0
 62
     0
 10
14100.3388730332899286
 20
4146.9047648875930463
 30
0.0
 11
14100.3388730332899286
 21
4184.6782739819500421
 31
0.0
  0
LINE
  5
531
  8
0
 62
     0
 10
13920.5917670260096202
 20
4184.4982739819506605
 30
0.0
 11
14009.7976870146503643
 21
4184.4982739819506605
 31
0.0
  0
LINE
  5
532
  8
0
 62
     0
 10
14100.1588730332896375
 20
4184.4982739819506605
 30
0.0
 11
14010.9529530446598073
 21
4184.4982739819506605
 31
0.0
  0
SOLID
  5
533
  8
0
 62
     0
 10
13920.5917670260096202
 20
4184.5282739819522249
 30
0.0
 11
13920.5917670260096202
 21
4184.4682739819509152
 31
0.0
 12
13920.4117670260093291
 22
4184.4982739819506605
 32
0.0
 13
13920.4117670260093291
 23
4184.4982739819506605
 33
0.0
  0
SOLID
  5
534
  8
0
 62
     0
 10
14100.1588730332896375
 20
4184.5282739819522249
 30
0.0
 11
14100.1588730332896375
 21
4184.4682739819509152
 31
0.0
 12
14100.3388730332899286
 22
4184.4982739819506605
 32
0.0
 13
14100.3388730332899286
 23
4184.4982739819506605
 33
0.0
  0
INSERT
  5
535
  8
0
  2
*U11
 10
0.0
 20
0.0
 30
0.0
  0
POINT
  5
536
  8
DEFPOINTS
 62
     0
 10
13920.4117670260093291
 20
4113.4108073825136671
 30
0.0
  0
POINT
  5
537
  8
DEFPOINTS
 62
     0
 10
14100.3388730332899286
 20
4146.8422648875921368
 30
0.0
  0
POINT
  5
538
  8
DEFPOINTS
 62
     0
 10
14100.3388730332899286
 20
4184.4982739819506605
 30
0.0
  0
ENDBLK
  5
52E
  8
0
  0
BLOCK
  8
0
  2
*U11
 70
     1
 10
0.0
 20
0.0
 30
0.0
  3
*U11
  1

  0
TEXT
  5
5D0
  8
0
 62
     0
 10
14009.8603063870905316
 20
4184.4098087704905993
 30
0.0
 40
0.18
  1
179.9271
  0
ENDBLK
  5
5D2
  8
0
  0
BLOCK
  8
0
  2
*D12
 70
     1
 10
0.0
 20
0.0
 30
0.0
  3
*D12
  1

  0
LINE
  5
53C
  8
0
 62
     0
 10
13963.7807245310905273
 20
4156.8422648875930463
 30
0.0
 11
13863.8040062363597826
 21
4156.8422648875930463
 31
0.0
  0
LINE
  5
53D
  8
0
 62
     0
 10
14056.8449155282305583
 20
3896.8422648875939558
 30
0.0
 11
13863.8040062363597826
 21
3896.8422648875939558
 31
0.0
  0
LINE
  5
53E
  8
0
 62
     0
 10
13863.9840062363600737
 20
4156.6622648875945742
 30
0.0
 11
13863.9840062363600737
 21
4027.0241680253830054
 31
0.0
  0
LINE
  5
53F
  8
0
 62
     0
 10
13863.9840062363600737
 20
3897.0222648875960658
 30
0.0
 11
13863.9840062363600737
 21
4026.6603617498039966
 31
0.0
  0
SOLID
  5
540
  8
0
 62
     0
 10
13863.9540062363594188
 20
4156.6622648875945742
 30
0.0
 11
13864.0140062363607285
 21
4156.6622648875945742
 31
0.0
 12
13863.9840062363600737
 22
4156.8422648875930463
 32
0.0
 13
13863.9840062363600737
 23
4156.8422648875930463
 33
0.0
  0
SOLID
  5
541
  8
0
 62
     0
 10
13863.9540062363594188
 20
3897.0222648875960658
 30
0.0
 11
13864.0140062363607285
 21
3897.0222648875960658
 31
0.0
 12
13863.9840062363600737
 22
3896.8422648875939558
 32
0.0
 13
13863.9840062363600737
 23
3896.8422648875939558
 33
0.0
  0
INSERT
  5
542
  8
0
  2
*U13
 10
0.0
 20
0.0
 30
0.0
  0
POINT
  5
543
  8
DEFPOINTS
 62
     0
 10
13963.8432245310905273
 20
4156.8422648875930463
 30
0.0
  0
POINT
  5
544
  8
DEFPOINTS
 62
     0
 10
14056.9074155282305583
 20
3896.8422648875939558
 30
0.0
  0
POINT
  5
545
  8
DEFPOINTS
 62
     0
 10
13863.9840062363600737
 20
3896.8422648875939558
 30
0.0
  0
ENDBLK
  5
53B
  8
0
  0
BLOCK
  8
0
  2
*U13
 70
     1
 10
0.0
 20
0.0
 30
0.0
  3
*U13
  1

  0
TEXT
  5
5D4
  8
0
 62
     0
 10
13863.4619325665007636
 20
4026.7537996761279828
 30
0.0
 40
0.18
  1
260.0000
  0
ENDBLK
  5
5D6
  8
0
  0
BLOCK
  8
0
  2
*D14
 70
     1
 10
0.0
 20
0.0
 30
0.0
  3
*D14
  1

  0
LINE
  5
560
  8
0
 62
     0
 10
13589.1026022618898423
 20
3954.9273790744318831
 30
0.0
 11
13589.1026022618898423
 21
4062.9486383465828112
 31
0.0
  0
LINE
  5
561
  8
0
 62
     0
 10
13049.9922041393401742
 20
3954.9273790744318831
 30
0.0
 11
13049.9922041393401742
 21
4062.9486383465828112
 31
0.0
  0
LINE
  5
562
  8
0
 62
     0
 10
13588.9226022618895513
 20
4062.7686383465829749
 30
0.0
 11
13320.1505137053900398
 21
4062.7686383465829749
 31
0.0
  0
LINE
  5
563
  8
0
 62
     0
 10
13050.1722041393404652
 20
4062.7686383465829749
 30
0.0
 11
13318.9442926958399767
 21
4062.7686383465829749
 31
0.0
  0
SOLID
  5
564
  8
0
 62
     0
 10
13588.9226022618895513
 20
4062.7986383465840845
 30
0.0
 11
13588.9226022618895513
 21
4062.7386383465827748
 31
0.0
 12
13589.1026022618898423
 22
4062.7686383465829749
 32
0.0
 13
13589.1026022618898423
 23
4062.7686383465829749
 33
0.0
  0
SOLID
  5
565
  8
0
 62
     0
 10
13050.1722041393404652
 20
4062.7986383465840845
 30
0.0
 11
13050.1722041393404652
 21
4062.7386383465827748
 31
0.0
 12
13049.9922041393401742
 22
4062.7686383465829749
 32
0.0
 13
13049.9922041393401742
 23
4062.7686383465829749
 33
0.0
  0
INSERT
  5
566
  8
0
  2
*U15
 10
0.0
 20
0.0
 30
0.0
  0
POINT
  5
567
  8
DEFPOINTS
 62
     0
 10
13589.1026022618898423
 20
3954.8648790744327925
 30
0.0
  0
POINT
  5
568
  8
DEFPOINTS
 62
     0
 10
13049.9922041393401742
 20
3954.8648790744327925
 30
0.0
  0
POINT
  5
569
  8
DEFPOINTS
 62
     0
 10
13049.9922041393401742
 20
4062.7686383465829749
 30
0.0
  0
ENDBLK
  5
548
  8
0
  0
BLOCK
  8
0
  2
*U15
 70
     1
 10
0.0
 20
0.0
 30
0.0
  3
*U15
  1

  0
TEXT
  5
5DC
  8
0
 62
     0
 10
13319.0238561337591818
 20
4062.6802345266642078
 30
0.0
 40
0.18
  1
539.1104
  0
ENDBLK
  5
5DE
  8
0
  0
BLOCK
  8
0
  2
*D16
 70
     1
 10
0.0
 20
0.0
 30
0.0
  3
*D16
  1

  0
LINE
  5
556
  8
0
 62
     0
 10
13068.1502492246600013
 20
4022.8648790744368853
 30
0.0
 11
13025.1110626975205378
 21
4022.8648790744368853
 31
0.0
  0
LINE
  5
557
  8
0
 62
     0
 10
13068.1502492246600013
 20
3886.8648790744441612
 30
0.0
 11
13025.1110626975205378
 21
3886.8648790744441612
 31
0.0
  0
LINE
  5
558
  8
0
 62
     0
 10
13025.2910626975299238
 20
4022.684879074437049
 30
0.0
 11
13025.2910626975299238
 21
3955.0468436037731408
 31
0.0
  0
LINE
  5
559
  8
0
 62
     0
 10
13025.2910626975299238
 20
3887.0448790744458165
 30
0.0
 11
13025.2910626975299238
 21
3954.6829145451088152
 31
0.0
  0
SOLID
  5
55A
  8
0
 62
     0
 10
13025.2610626975292689
 20
4022.684879074437049
 30
0.0
 11
13025.3210626975305786
 21
4022.684879074437049
 31
0.0
 12
13025.2910626975299238
 22
4022.8648790744368853
 32
0.0
 13
13025.2910626975299238
 23
4022.8648790744368853
 33
0.0
  0
SOLID
  5
55B
  8
0
 62
     0
 10
13025.2610626975292689
 20
3887.0448790744458165
 30
0.0
 11
13025.3210626975305786
 21
3887.0448790744458165
 31
0.0
 12
13025.2910626975299238
 22
3886.8648790744441612
 32
0.0
 13
13025.2910626975299238
 23
3886.8648790744441612
 33
0.0
  0
INSERT
  5
55C
  8
0
  2
*U17
 10
0.0
 20
0.0
 30
0.0
  0
POINT
  5
55D
  8
DEFPOINTS
 62
     0
 10
13068.2127492246509064
 20
4022.8648790744368853
 30
0.0
  0
POINT
  5
55E
  8
DEFPOINTS
 62
     0
 10
13068.2127492246509064
 20
3886.8648790744441612
 30
0.0
  0
POINT
  5
55F
  8
DEFPOINTS
 62
     0
 10
13025.2910626975299238
 20
3886.8648790744441612
 30
0.0
  0
ENDBLK
  5
555
  8
0
  0
BLOCK
  8
0
  2
*U17
 70
     1
 10
0.0
 20
0.0
 30
0.0
  3
*U17
  1

  0
TEXT
  5
5D8
  8
0
 62
     0
 10
13024.7589822063891916
 20
3954.7764752545190277
 30
0.0
 40
0.18
  1
136.0000
  0
ENDBLK
  5
5DA
  8
0
  0
ENDSEC
  0
SECTION
  2
ENTITIES
  0
LINE
  5
3C7
  8
0
 10
13084.5474032006095513
 20
3999.8648790744368853
 30
0.0
 11
13084.5474032006095513
 21
3909.8648790744368853
 31
0.0
  0
LINE
  5
3C8
  8
0
 10
13554.5474032006095513
 20
3999.8648790744368853
 30
0.0
 11
13554.5474032006095513
 21
3909.8648790744368853
 31
0.0
  0
LINE
  5
3C9
  8
0
 10
13554.5474032006095513
 20
3909.8648790744368853
 30
0.0
 11
13084.5474032006095513
 21
3909.8648790744368853
 31
0.0
  0
LINE
  5
3CA
  8
0
 10
13084.5474032006095513
 20
3999.8648790744368853
 30
0.0
 11
13554.5474032006095513
 21
3999.8648790744368853
 31
0.0
  0
LINE
  5
3CB
  8
0
 10
13084.5474032006095513
 20
3999.8648790744368853
 30
0.0
 11
13112.3474032006106427
 21
3999.8648790744368853
 31
0.0
  0
LINE
  5
3CC
  8
0
 10
13112.3474032006106427
 20
3999.8648790744368853
 30
0.0
 11
13171.5474032006095513
 21
3999.8648790744368853
 31
0.0
  0
CIRCLE
  5
3CD
  8
0
 10
13112.3474032006106427
 20
4007.8648790744359758
 30
0.0
 40
1.5
  0
CIRCLE
  5
3CE
  8
0
 10
13171.5474032006095513
 20
4007.8648790744359758
 30
0.0
 40
1.5
  0
CIRCLE
  5
3CF
  8
0
 10
13230.7474032006102789
 20
4007.8648790744359758
 30
0.0
 40
1.5
  0
CIRCLE
  5
3D0
  8
0
 10
13289.9474032006091875
 20
4007.8648790744359758
 30
0.0
 40
1.5
  0
CIRCLE
  5
3D1
  8
0
 10
13349.1474032006099151
 20
4007.8648790744359758
 30
0.0
 40
1.5
  0
CIRCLE
  5
3D2
  8
0
 10
13408.3474032006106427
 20
4007.8648790744359758
 30
0.0
 40
1.5
  0
CIRCLE
  5
3D3
  8
0
 10
13467.5474032006095513
 20
4007.8648790744359758
 30
0.0
 40
1.5
  0
CIRCLE
  5
3D4
  8
0
 10
13526.7474032006102789
 20
4007.8648790744359758
 30
0.0
 40
1.5
  0
CIRCLE
  5
3D5
  8
0
 10
13112.3474032006106427
 20
3901.8648790744368853
 30
0.0
 40
1.5
  0
CIRCLE
  5
3D6
  8
0
 10
13171.5474032006095513
 20
3901.8648790744368853
 30
0.0
 40
1.5
  0
CIRCLE
  5
3D7
  8
0
 10
13230.7474032006102789
 20
3901.8648790744368853
 30
0.0
 40
1.5
  0
CIRCLE
  5
3D8
  8
0
 10
13289.9474032006091875
 20
3901.8648790744368853
 30
0.0
 40
1.5
  0
CIRCLE
  5
3D9
  8
0
 10
13349.1474032006099151
 20
3901.8648790744368853
 30
0.0
 40
1.5
  0
CIRCLE
  5
3DA
  8
0
 10
13408.3474032006106427
 20
3901.8648790744368853
 30
0.0
 40
1.5
  0
CIRCLE
  5
3DB
  8
0
 10
13467.5474032006095513
 20
3901.8648790744368853
 30
0.0
 40
1.5
  0
CIRCLE
  5
3DC
  8
0
 10
13526.7474032006102789
 20
3901.8648790744368853
 30
0.0
 40
1.5
  0
LINE
  5
3DD
  8
0
 10
13068.2127492246509064
 20
4022.8648790744350663
 30
0.0
 11
13049.9922041393401742
 21
3954.8648790744359758
 31
0.0
  0
CIRCLE
  5
3DE
  8
0
 10
13559.5474032006204652
 20
4018.3648790744350663
 30
0.0
 40
1.5
  0
CIRCLE
  5
3DF
  8
0
 10
13079.5474032005895424
 20
4018.3648790744350663
 30
0.0
 40
1.5
  0
CIRCLE
  5
3E0
  8
0
 10
13559.5474032006204652
 20
3891.3648790744368853
 30
0.0
 40
1.5
  0
CIRCLE
  5
3E1
  8
0
 10
13079.5474032005895424
 20
3891.3648790744368853
 30
0.0
 40
1.5
  0
CIRCLE
  5
3E2
  8
0
 10
13579.9004090959206223
 20
3971.8212666376839479
 30
0.0
 40
1.5
  0
CIRCLE
  5
3E3
  8
0
 10
13579.9004090959206223
 20
3937.9084915111848204
 30
0.0
 40
1.5
  0
CIRCLE
  5
3E4
  8
0
 10
13059.1943973053002992
 20
3971.8212666376862217
 30
0.0
 40
1.5
  0
CIRCLE
  5
3E5
  8
0
 10
13059.1943973053002992
 20
3937.9084915111861847
 30
0.0
 40
1.5
  0
LINE
  5
3E6
  8
0
 10
13570.8820571765700151
 20
4022.8648790744350663
 30
0.0
 11
13589.1026022618898423
 21
3954.8648790744327925
 31
0.0
  0
LINE
  5
3E7
  8
0
 10
13049.9922041393401742
 20
3954.8648790744359758
 30
0.0
 11
13068.2127492246509064
 21
3886.8648790744359758
 31
0.0
  0
LINE
  5
3E8
  8
0
 10
13589.1026022618898423
 20
3954.8648790744327925
 30
0.0
 11
13570.8820571765700151
 21
3886.8648790744350663
 31
0.0
  0
LINE
  5
3E9
  8
0
 10
13068.2127492246509064
 20
4022.8648790744350663
 30
0.0
 11
13570.8820571765700151
 21
4022.8648790744350663
 31
0.0
  0
LINE
  5
3EA
  8
0
 10
13068.2127492246509064
 20
3886.8648790744359758
 30
0.0
 11
13570.8820571765700151
 21
3886.8648790744350663
 31
0.0
  0
LINE
  5
3EB
  8
0
 10
13087.3346729806598887
 20
3975.693300067905966
 30
0.0
 11
13087.3346729806598887
 21
3985.693300067905966
 31
0.0
  0
LINE
  5
3EC
  8
0
 10
13097.3346729806598887
 20
3995.6933000679068755
 30
0.0
 11
13087.3346729806598887
 21
3985.693300067905966
 31
0.0
  0
LINE
  5
3ED
  8
0
 10
13097.3346729806598887
 20
3965.6933000679068755
 30
0.0
 11
13087.3346729806598887
 21
3975.693300067905966
 31
0.0
  0
LINE
  5
3EE
  8
0
 10
13097.3346729806598887
 20
3965.6933000679068755
 30
0.0
 11
13297.3346729806598887
 21
3965.6933000679068755
 31
0.0
  0
LINE
  5
3EF
  8
0
 10
13097.3346729806598887
 20
3995.6933000679068755
 30
0.0
 11
13297.3346729806598887
 21
3995.6933000679068755
 31
0.0
  0
LINE
  5
3F0
  8
0
 10
13302.3346729806598887
 20
3970.6933000679068755
 30
0.0
 11
13297.3346729806598887
 21
3965.6933000679068755
 31
0.0
  0
LINE
  5
3F1
  8
0
 10
13302.3346729806598887
 20
3990.6933000679068755
 30
0.0
 11
13297.3346729806598887
 21
3995.6933000679068755
 31
0.0
  0
LINE
  5
3F2
  8
0
 10
13302.3346729806598887
 20
3970.6933000679068755
 30
0.0
 11
13397.3346729806598887
 21
3970.6933000679068755
 31
0.0
  0
LINE
  5
3F3
  8
0
 10
13397.3346729806598887
 20
3990.6933000679068755
 30
0.0
 11
13302.3346729806598887
 21
3990.6933000679068755
 31
0.0
  0
ARC
  5
3F4
  8
0
 10
13397.3346729806598887
 20
3980.6933000679068755
 30
0.0
 40
10.0
 50
270.0
 51
90.0
  0
CIRCLE
  5
3F5
  8
0
 10
13397.3346729806598887
 20
3980.6933000679068755
 30
0.0
 40
2.5
  0
CIRCLE
  5
3F6
  8
0
 10
13284.3346729806598887
 20
3980.6933000679068755
 30
0.0
 40
1.5
  0
CIRCLE
  5
3F7
  8
0
 10
13274.3346729806598887
 20
3980.6933000679068755
 30
0.0
 40
1.5
  0
CIRCLE
  5
3F8
  8
0
 10
13264.3346729806598887
 20
3980.6933000679068755
 30
0.0
 40
1.5
  0
CIRCLE
  5
3F9
  8
0
 10
13234.3346729806598887
 20
3980.6933000679068755
 30
0.0
 40
1.5
  0
CIRCLE
  5
3FA
  8
0
 10
13244.3346729806598887
 20
3980.6933000679068755
 30
0.0
 40
1.5
  0
CIRCLE
  5
3FB
  8
0
 10
13254.3346729806598887
 20
3980.6933000679068755
 30
0.0
 40
1.5
  0
CIRCLE
  5
3FC
  8
0
 10
13224.3346729806598887
 20
3980.6933000679068755
 30
0.0
 40
1.5
  0
CIRCLE
  5
3FD
  8
0
 10
13214.3346729806598887
 20
3980.6933000679068755
 30
0.0
 40
1.5
  0
CIRCLE
  5
3FE
  8
0
 10
13204.3346729806598887
 20
3980.6933000679068755
 30
0.0
 40
1.5
  0
CIRCLE
  5
3FF
  8
0
 10
13174.3346729806598887
 20
3980.6933000679068755
 30
0.0
 40
1.5
  0
CIRCLE
  5
400
  8
0
 10
13184.3346729806598887
 20
3980.6933000679068755
 30
0.0
 40
1.5
  0
CIRCLE
  5
401
  8
0
 10
13194.3346729806598887
 20
3980.6933000679068755
 30
0.0
 40
1.5
  0
CIRCLE
  5
402
  8
0
 10
13164.3346729806598887
 20
3980.6933000679068755
 30
0.0
 40
1.5
  0
CIRCLE
  5
403
  8
0
 10
13154.3346729806598887
 20
3980.6933000679068755
 30
0.0
 40
1.5
  0
CIRCLE
  5
404
  8
0
 10
13144.3346729806598887
 20
3980.6933000679068755
 30
0.0
 40
1.5
  0
CIRCLE
  5
405
  8
0
 10
13124.3346729806598887
 20
3980.6933000679068755
 30
0.0
 40
1.5
  0
CIRCLE
  5
406
  8
0
 10
13134.3346729806598887
 20
3980.6933000679068755
 30
0.0
 40
1.5
  0
CIRCLE
  5
407
  8
0
 10
13294.3346729806598887
 20
3980.6933000679068755
 30
0.0
 40
1.5
  0
CIRCLE
  5
408
  8
0
 10
13104.3346729806598887
 20
3980.6933000679068755
 30
0.0
 40
1.5
  0
CIRCLE
  5
409
  8
0
 10
13114.3346729806598887
 20
3980.6933000679068755
 30
0.0
 40
1.5
  0
CIRCLE
  5
40A
  8
0
 10
13369.8346729806598887
 20
3980.6933000679068755
 30
0.0
 40
2.5
  0
CIRCLE
  5
40B
  8
0
 10
13445.4349872623497504
 20
3957.2787813667969203
 30
0.0
 40
2.5
  0
CIRCLE
  5
40C
  8
0
 10
13420.4349872623497504
 20
3960.2787813667919181
 30
0.0
 40
2.0
  0
CIRCLE
  5
40D
  8
0
 10
13470.4349872623497504
 20
3960.2787813667928276
 30
0.0
 40
2.0
  0
LINE
  5
40E
  8
0
 10
13410.4349872623497504
 20
3982.9859235095100303
 30
0.0
 11
13410.4349872623497504
 21
3947.2787813667960108
 31
0.0
  0
LINE
  5
40F
  8
0
 10
13410.4349872623497504
 20
3947.2787813667960108
 30
0.0
 11
13445.4349872623497504
 21
3947.2787813667960108
 31
0.0
  0
LINE
  5
410
  8
0
 10
13480.4349872623497504
 20
3982.9859235095109398
 30
0.0
 11
13480.4349872623497504
 21
3947.2787813667969203
 31
0.0
  0
LINE
  5
411
  8
0
 10
13445.4349872623497504
 20
3947.2787813667960108
 30
0.0
 11
13480.4349872623497504
 21
3947.2787813667960108
 31
0.0
  0
ARC
  5
412
  8
0
 10
13445.4349872623497504
 20
3957.2787813667969203
 30
0.0
 40
30.0000000000000817
 50
40.0000000000393001
 51
139.9999999999606075
  0
ARC
  5
413
  8
0
 10
13445.4349872623497504
 20
3957.2787813667960108
 30
0.0
 40
25.0000000000008704
 50
40.0000000000393001
 51
139.9999999999606075
  0
ARC
  5
414
  8
0
 10
13424.3687650765805301
 20
3974.9554406331772043
 30
0.0
 40
2.5
 50
140.0000000000441105
 51
319.9999999999607212
  0
ARC
  5
415
  8
0
 10
13466.5012094481207896
 20
3974.9554406331772043
 30
0.0
 40
2.5
 50
220.0000000000393072
 51
39.9999999999559179
  0
ARC
  5
416
  8
0
 10
13445.4349872623497504
 20
3947.2787813667960108
 30
0.0
 40
50.0000000000001421
 50
45.5729959992092333
 51
134.4270040007907028
  0
CIRCLE
  5
417
  8
0
 10
13494.0868025578092784
 20
3962.1198383283590374
 30
0.0
 40
2.5
  0
CIRCLE
  5
418
  8
0
 10
13497.0868025578092784
 20
3987.1198383283590374
 30
0.0
 40
2.0
  0
CIRCLE
  5
419
  8
0
 10
13497.0868025578092784
 20
3937.1198383283590374
 30
0.0
 40
2.0
  0
LINE
  5
41A
  8
0
 10
13519.7939447005192051
 20
3997.1198383283590374
 30
0.0
 11
13484.0868025578092784
 21
3997.1198383283608564
 31
0.0
  0
LINE
  5
41B
  8
0
 10
13484.0868025578092784
 20
3997.1198383283608564
 30
0.0
 11
13484.0868025578092784
 21
3962.1198383283590374
 31
0.0
  0
LINE
  5
41C
  8
0
 10
13519.7939447005192051
 20
3927.1198383283590374
 30
0.0
 11
13484.0868025578201923
 21
3927.1198383283572184
 31
0.0
  0
LINE
  5
41D
  8
0
 10
13484.0868025578092784
 20
3962.1198383283590374
 30
0.0
 11
13484.0868025578092784
 21
3927.1198383283572184
 31
0.0
  0
ARC
  5
41E
  8
0
 10
13494.0868025578092784
 20
3962.1198383283590374
 30
0.0
 40
30.0000000000000817
 50
310.0000000000209184
 51
49.9999999999790319
  0
ARC
  5
41F
  8
0
 10
13494.0868025578092784
 20
3962.1198383283590374
 30
0.0
 40
25.0000000000008704
 50
310.0000000000209184
 51
49.9999999999790319
  0
ARC
  5
420
  8
0
 10
13511.7634618241900171
 20
3983.1860605141309861
 30
0.0
 40
2.5
 50
50.0000000000441105
 51
229.9999999999789964
  0
ARC
  5
421
  8
0
 10
13511.7634618241900171
 20
3941.0536161425861792
 30
0.0
 40
2.5
 50
130.0000000000210036
 51
309.9999999999558895
  0
ARC
  5
422
  8
0
 10
13484.0868025578092784
 20
3962.1198383283590374
 30
0.0
 40
50.0000000000001421
 50
315.5729959991817282
 51
44.4270040008183216
  0
LINE
  5
423
  8
0
 10
13088.2477873883999564
 20
3941.065219244544096
 30
0.0
 11
13088.2477873883999564
 21
3951.065219244544096
 31
0.0
  0
LINE
  5
424
  8
0
 10
13098.2477873883999564
 20
3961.065219244544096
 30
0.0
 11
13088.2477873883999564
 21
3951.065219244544096
 31
0.0
  0
LINE
  5
425
  8
0
 10
13098.2477873883999564
 20
3931.065219244544096
 30
0.0
 11
13088.2477873883999564
 21
3941.065219244544096
 31
0.0
  0
LINE
  5
426
  8
0
 10
13098.2477873883999564
 20
3931.065219244544096
 30
0.0
 11
13298.2477873883999564
 21
3931.065219244544096
 31
0.0
  0
LINE
  5
427
  8
0
 10
13098.2477873883999564
 20
3961.065219244544096
 30
0.0
 11
13298.2477873883999564
 21
3961.065219244544096
 31
0.0
  0
LINE
  5
428
  8
0
 10
13303.2477873883999564
 20
3936.0652192445431865
 30
0.0
 11
13298.2477873883999564
 21
3931.065219244544096
 31
0.0
  0
LINE
  5
429
  8
0
 10
13303.2477873883999564
 20
3956.065219244544096
 30
0.0
 11
13298.2477873883999564
 21
3961.065219244544096
 31
0.0
  0
LINE
  5
42A
  8
0
 10
13303.2477873883999564
 20
3936.0652192445431865
 30
0.0
 11
13398.2477873883999564
 21
3936.0652192445431865
 31
0.0
  0
LINE
  5
42B
  8
0
 10
13398.2477873883999564
 20
3956.065219244544096
 30
0.0
 11
13303.2477873883999564
 21
3956.065219244544096
 31
0.0
  0
ARC
  5
42C
  8
0
 10
13398.2477873883999564
 20
3946.0652192445450055
 30
0.0
 40
10.0
 50
270.0
 51
90.0
  0
CIRCLE
  5
42D
  8
0
 10
13398.2477873883999564
 20
3946.0652192445450055
 30
0.0
 40
2.5
  0
CIRCLE
  5
42E
  8
0
 10
13285.2477873883999564
 20
3946.0652192445450055
 30
0.0
 40
1.5
  0
CIRCLE
  5
42F
  8
0
 10
13275.2477873883999564
 20
3946.0652192445450055
 30
0.0
 40
1.5
  0
CIRCLE
  5
430
  8
0
 10
13265.2477873883999564
 20
3946.0652192445450055
 30
0.0
 40
1.5
  0
CIRCLE
  5
431
  8
0
 10
13235.2477873883999564
 20
3946.0652192445450055
 30
0.0
 40
1.5
  0
CIRCLE
  5
432
  8
0
 10
13245.2477873883999564
 20
3946.0652192445450055
 30
0.0
 40
1.5
  0
CIRCLE
  5
433
  8
0
 10
13255.2477873883999564
 20
3946.0652192445450055
 30
0.0
 40
1.5
  0
CIRCLE
  5
434
  8
0
 10
13225.2477873883999564
 20
3946.0652192445450055
 30
0.0
 40
1.5
  0
CIRCLE
  5
435
  8
0
 10
13215.2477873883999564
 20
3946.0652192445450055
 30
0.0
 40
1.5
  0
CIRCLE
  5
436
  8
0
 10
13205.2477873883999564
 20
3946.0652192445450055
 30
0.0
 40
1.5
  0
CIRCLE
  5
437
  8
0
 10
13175.2477873883908615
 20
3946.0652192445450055
 30
0.0
 40
1.5
  0
CIRCLE
  5
438
  8
0
 10
13185.2477873883999564
 20
3946.0652192445450055
 30
0.0
 40
1.5
  0
CIRCLE
  5
439
  8
0
 10
13195.2477873883908615
 20
3946.0652192445450055
 30
0.0
 40
1.5
  0
CIRCLE
  5
43A
  8
0
 10
13165.2477873883999564
 20
3946.0652192445450055
 30
0.0
 40
1.5
  0
CIRCLE
  5
43B
  8
0
 10
13155.2477873883908615
 20
3946.0652192445450055
 30
0.0
 40
1.5
  0
CIRCLE
  5
43C
  8
0
 10
13145.2477873883999564
 20
3946.0652192445450055
 30
0.0
 40
1.5
  0
CIRCLE
  5
43D
  8
0
 10
13125.2477873883999564
 20
3946.0652192445450055
 30
0.0
 40
1.5
  0
CIRCLE
  5
43E
  8
0
 10
13135.2477873883908615
 20
3946.0652192445450055
 30
0.0
 40
1.5
  0
CIRCLE
  5
43F
  8
0
 10
13295.2477873883999564
 20
3946.0652192445450055
 30
0.0
 40
1.5
  0
CIRCLE
  5
440
  8
0
 10
13105.2477873883999564
 20
3946.0652192445450055
 30
0.0
 40
1.5
  0
CIRCLE
  5
441
  8
0
 10
13115.2477873883908615
 20
3946.0652192445450055
 30
0.0
 40
1.5
  0
CIRCLE
  5
442
  8
0
 10
13370.7477873883999564
 20
3946.0652192445450055
 30
0.0
 40
2.5
  0
CIRCLE
  5
443
  8
0
 10
13376.3254639400693122
 20
3964.3866922693441666
 30
0.0
 40
1.5
  0
LINE
  5
444
  8
0
 10
13366.5254639400700398
 20
3958.3866922693441666
 30
0.0
 11
13356.5254639400700398
 21
3958.3866922693441666
 31
0.0
  0
LINE
  5
445
  8
0
 10
13356.5254639400700398
 20
3958.3866922693441666
 30
0.0
 11
13356.5254639400700398
 21
3968.3866922693441666
 31
0.0
  0
LINE
  5
446
  8
0
 10
13356.5254639400700398
 20
3968.3866922693441666
 30
0.0
 11
13366.5254639400700398
 21
3968.3866922693441666
 31
0.0
  0
LINE
  5
447
  8
0
 10
13386.1254639400704036
 20
3958.3866922693441666
 30
0.0
 11
13396.1254639400704036
 21
3958.3866922693441666
 31
0.0
  0
LINE
  5
448
  8
0
 10
13396.1254639400704036
 20
3958.3866922693441666
 30
0.0
 11
13396.1254639400704036
 21
3968.3866922693441666
 31
0.0
  0
LINE
  5
449
  8
0
 10
13396.1254639400704036
 20
3968.3866922693441666
 30
0.0
 11
13386.1254639400704036
 21
3968.3866922693441666
 31
0.0
  0
LINE
  5
44A
  8
0
 10
13366.5254639400700398
 20
3968.3866922693441666
 30
0.0
 11
13366.5254639400700398
 21
3966.8866922693441666
 31
0.0
  0
LINE
  5
44B
  8
0
 10
13366.5254639400700398
 20
3966.8866922693441666
 30
0.0
 11
13386.1254639400704036
 21
3966.8866922693441666
 31
0.0
  0
LINE
  5
44C
  8
0
 10
13366.5254639400700398
 20
3958.3866922693441666
 30
0.0
 11
13366.5254639400700398
 21
3959.8866922693441666
 31
0.0
  0
LINE
  5
44D
  8
0
 10
13366.5254639400700398
 20
3959.8866922693441666
 30
0.0
 11
13386.1254639400704036
 21
3959.8866922693441666
 31
0.0
  0
LINE
  5
44E
  8
0
 10
13386.1254639400704036
 20
3968.3866922693441666
 30
0.0
 11
13386.1254639400704036
 21
3966.8866922693441666
 31
0.0
  0
LINE
  5
44F
  8
0
 10
13386.1254639400704036
 20
3959.8866922693441666
 30
0.0
 11
13386.1254639400704036
 21
3958.3866922693441666
 31
0.0
  0
CIRCLE
  5
450
  8
0
 10
13333.950053820899484
 20
3964.4597943669309643
 30
0.0
 40
1.5
  0
LINE
  5
451
  8
0
 10
13324.1500538209002116
 20
3958.4597943669318738
 30
0.0
 11
13314.1500538209002116
 21
3958.4597943669318738
 31
0.0
  0
LINE
  5
452
  8
0
 10
13314.1500538209002116
 20
3958.4597943669318738
 30
0.0
 11
13314.1500538209002116
 21
3968.4597943669318738
 31
0.0
  0
LINE
  5
453
  8
0
 10
13314.1500538209002116
 20
3968.4597943669318738
 30
0.0
 11
13324.1500538209002116
 21
3968.4597943669318738
 31
0.0
  0
LINE
  5
454
  8
0
 10
13343.7500538209005754
 20
3958.4597943669318738
 30
0.0
 11
13353.7500538209005754
 21
3958.4597943669318738
 31
0.0
  0
LINE
  5
455
  8
0
 10
13353.7500538209005754
 20
3958.4597943669318738
 30
0.0
 11
13353.7500538209005754
 21
3968.4597943669318738
 31
0.0
  0
LINE
  5
456
  8
0
 10
13353.7500538209005754
 20
3968.4597943669318738
 30
0.0
 11
13343.7500538209005754
 21
3968.4597943669318738
 31
0.0
  0
LINE
  5
457
  8
0
 10
13324.1500538209002116
 20
3968.4597943669318738
 30
0.0
 11
13324.1500538209002116
 21
3966.9597943669318738
 31
0.0
  0
LINE
  5
458
  8
0
 10
13324.1500538209002116
 20
3966.9597943669318738
 30
0.0
 11
13343.7500538209005754
 21
3966.9597943669318738
 31
0.0
  0
LINE
  5
459
  8
0
 10
13324.1500538209002116
 20
3958.4597943669318738
 30
0.0
 11
13324.1500538209002116
 21
3959.9597943669318738
 31
0.0
  0
LINE
  5
45A
  8
0
 10
13324.1500538209002116
 20
3959.9597943669318738
 30
0.0
 11
13343.7500538209005754
 21
3959.9597943669318738
 31
0.0
  0
LINE
  5
45B
  8
0
 10
13343.7500538209005754
 20
3968.4597943669318738
 30
0.0
 11
13343.7500538209005754
 21
3966.9597943669318738
 31
0.0
  0
LINE
  5
45C
  8
0
 10
13343.7500538209005754
 20
3959.9597943669318738
 30
0.0
 11
13343.7500538209005754
 21
3958.4597943669318738
 31
0.0
  0
CIRCLE
  5
45D
  8
0
 10
13430.2924825778700324
 20
3939.5800869635299932
 30
0.0
 40
1.5
  0
LINE
  5
45E
  8
0
 10
13420.49248257787076
 20
3933.5800869635299932
 30
0.0
 11
13410.49248257787076
 21
3933.5800869635299932
 31
0.0
  0
LINE
  5
45F
  8
0
 10
13410.49248257787076
 20
3933.5800869635299932
 30
0.0
 11
13410.49248257787076
 21
3943.5800869635299932
 31
0.0
  0
LINE
  5
460
  8
0
 10
13410.49248257787076
 20
3943.5800869635299932
 30
0.0
 11
13420.49248257787076
 21
3943.5800869635299932
 31
0.0
  0
LINE
  5
461
  8
0
 10
13440.0924825778802187
 20
3933.5800869635299932
 30
0.0
 11
13450.0924825778802187
 21
3933.5800869635299932
 31
0.0
  0
LINE
  5
462
  8
0
 10
13450.0924825778802187
 20
3933.5800869635299932
 30
0.0
 11
13450.0924825778802187
 21
3943.5800869635299932
 31
0.0
  0
LINE
  5
463
  8
0
 10
13450.0924825778802187
 20
3943.5800869635299932
 30
0.0
 11
13440.0924825778802187
 21
3943.5800869635299932
 31
0.0
  0
LINE
  5
464
  8
0
 10
13420.49248257787076
 20
3943.5800869635299932
 30
0.0
 11
13420.49248257787076
 21
3942.0800869635299932
 31
0.0
  0
LINE
  5
465
  8
0
 10
13420.49248257787076
 20
3942.0800869635299932
 30
0.0
 11
13440.0924825778802187
 21
3942.0800869635299932
 31
0.0
  0
LINE
  5
466
  8
0
 10
13420.49248257787076
 20
3933.5800869635299932
 30
0.0
 11
13420.49248257787076
 21
3935.0800869635299932
 31
0.0
  0
LINE
  5
467
  8
0
 10
13420.49248257787076
 20
3935.0800869635299932
 30
0.0
 11
13440.0924825778802187
 21
3935.0800869635299932
 31
0.0
  0
LINE
  5
468
  8
0
 10
13440.0924825778802187
 20
3943.5800869635299932
 30
0.0
 11
13440.0924825778802187
 21
3942.0800869635299932
 31
0.0
  0
LINE
  5
469
  8
0
 10
13440.0924825778802187
 20
3935.0800869635299932
 30
0.0
 11
13440.0924825778802187
 21
3933.5800869635299932
 31
0.0
  0
CIRCLE
  5
46A
  8
0
 10
13430.9898899678100861
 20
3927.3256444790790738
 30
0.0
 40
1.5
  0
LINE
  5
46B
  8
0
 10
13421.1898899678108137
 20
3921.3256444790790738
 30
0.0
 11
13411.1898899678108137
 21
3921.3256444790790738
 31
0.0
  0
LINE
  5
46C
  8
0
 10
13411.1898899678108137
 20
3921.3256444790790738
 30
0.0
 11
13411.1898899678108137
 21
3931.3256444790790738
 31
0.0
  0
LINE
  5
46D
  8
0
 10
13411.1898899678108137
 20
3931.3256444790790738
 30
0.0
 11
13421.1898899678108137
 21
3931.3256444790790738
 31
0.0
  0
LINE
  5
46E
  8
0
 10
13440.7898899678093585
 20
3921.3256444790790738
 30
0.0
 11
13450.7898899678202724
 21
3921.3256444790790738
 31
0.0
  0
LINE
  5
46F
  8
0
 10
13450.7898899678202724
 20
3921.3256444790790738
 30
0.0
 11
13450.7898899678202724
 21
3931.3256444790790738
 31
0.0
  0
LINE
  5
470
  8
0
 10
13450.7898899678202724
 20
3931.3256444790790738
 30
0.0
 11
13440.7898899678093585
 21
3931.3256444790790738
 31
0.0
  0
LINE
  5
471
  8
0
 10
13421.1898899678108137
 20
3931.3256444790790738
 30
0.0
 11
13421.1898899678108137
 21
3929.8256444790799833
 31
0.0
  0
LINE
  5
472
  8
0
 10
13421.1898899678108137
 20
3929.8256444790799833
 30
0.0
 11
13440.7898899678093585
 21
3929.8256444790799833
 31
0.0
  0
LINE
  5
473
  8
0
 10
13421.1898899678108137
 20
3921.3256444790790738
 30
0.0
 11
13421.1898899678108137
 21
3922.8256444790790738
 31
0.0
  0
LINE
  5
474
  8
0
 10
13421.1898899678108137
 20
3922.8256444790790738
 30
0.0
 11
13440.7898899678093585
 21
3922.8256444790790738
 31
0.0
  0
LINE
  5
475
  8
0
 10
13440.7898899678093585
 20
3931.3256444790790738
 30
0.0
 11
13440.7898899678093585
 21
3929.8256444790799833
 31
0.0
  0
LINE
  5
476
  8
0
 10
13440.7898899678093585
 20
3922.8256444790790738
 30
0.0
 11
13440.7898899678093585
 21
3921.3256444790790738
 31
0.0
  0
CIRCLE
  5
477
  8
0
 10
13387.9177223262504413
 20
3927.1005645257141623
 30
0.0
 40
1.5
  0
LINE
  5
478
  8
0
 10
13378.1177223262493499
 20
3921.1005645257118886
 30
0.0
 11
13368.1177223262493499
 21
3921.1005645257118886
 31
0.0
  0
LINE
  5
479
  8
0
 10
13368.1177223262493499
 20
3921.1005645257118886
 30
0.0
 11
13368.1177223262493499
 21
3931.1005645257127981
 31
0.0
  0
LINE
  5
47A
  8
0
 10
13368.1177223262493499
 20
3931.1005645257127981
 30
0.0
 11
13378.1177223262493499
 21
3931.1005645257127981
 31
0.0
  0
LINE
  5
47B
  8
0
 10
13397.7177223262497137
 20
3921.1005645257118886
 30
0.0
 11
13407.7177223262497137
 21
3921.1005645257118886
 31
0.0
  0
LINE
  5
47C
  8
0
 10
13407.7177223262497137
 20
3921.1005645257118886
 30
0.0
 11
13407.7177223262497137
 21
3931.1005645257127981
 31
0.0
  0
LINE
  5
47D
  8
0
 10
13407.7177223262497137
 20
3931.1005645257127981
 30
0.0
 11
13397.7177223262497137
 21
3931.1005645257127981
 31
0.0
  0
LINE
  5
47E
  8
0
 10
13378.1177223262493499
 20
3931.1005645257127981
 30
0.0
 11
13378.1177223262493499
 21
3929.6005645257127981
 31
0.0
  0
LINE
  5
47F
  8
0
 10
13378.1177223262493499
 20
3929.6005645257127981
 30
0.0
 11
13397.7177223262497137
 21
3929.6005645257127981
 31
0.0
  0
LINE
  5
480
  8
0
 10
13378.1177223262493499
 20
3921.1005645257118886
 30
0.0
 11
13378.1177223262493499
 21
3922.6005645257118886
 31
0.0
  0
LINE
  5
481
  8
0
 10
13378.1177223262493499
 20
3922.6005645257118886
 30
0.0
 11
13397.7177223262497137
 21
3922.6005645257118886
 31
0.0
  0
LINE
  5
482
  8
0
 10
13397.7177223262497137
 20
3931.1005645257127981
 30
0.0
 11
13397.7177223262497137
 21
3929.6005645257127981
 31
0.0
  0
LINE
  5
483
  8
0
 10
13397.7177223262497137
 20
3922.6005645257118886
 30
0.0
 11
13397.7177223262497137
 21
3921.1005645257118886
 31
0.0
  0
CIRCLE
  5
484
  8
0
 10
13112.0209721541996259
 20
3922.1128688471380883
 30
0.0
 40
1.5
  0
LINE
  5
485
  8
0
 10
13102.2209721542003535
 20
3916.1128688471380883
 30
0.0
 11
13092.2209721542003535
 21
3916.1128688471380883
 31
0.0
  0
LINE
  5
486
  8
0
 10
13092.2209721542003535
 20
3916.1128688471380883
 30
0.0
 11
13092.2209721542003535
 21
3926.1128688471380883
 31
0.0
  0
LINE
  5
487
  8
0
 10
13092.2209721542003535
 20
3926.1128688471380883
 30
0.0
 11
13102.2209721542003535
 21
3926.1128688471380883
 31
0.0
  0
LINE
  5
488
  8
0
 10
13121.8209721542007173
 20
3916.1128688471380883
 30
0.0
 11
13131.8209721542007173
 21
3916.1128688471380883
 31
0.0
  0
LINE
  5
489
  8
0
 10
13131.8209721542007173
 20
3916.1128688471380883
 30
0.0
 11
13131.8209721542007173
 21
3926.1128688471380883
 31
0.0
  0
LINE
  5
48A
  8
0
 10
13131.8209721542007173
 20
3926.1128688471380883
 30
0.0
 11
13121.8209721542007173
 21
3926.1128688471380883
 31
0.0
  0
LINE
  5
48B
  8
0
 10
13102.2209721542003535
 20
3926.1128688471380883
 30
0.0
 11
13102.2209721542003535
 21
3924.6128688471380883
 31
0.0
  0
LINE
  5
48C
  8
0
 10
13102.2209721542003535
 20
3924.6128688471380883
 30
0.0
 11
13121.8209721542007173
 21
3924.6128688471380883
 31
0.0
  0
LINE
  5
48D
  8
0
 10
13102.2209721542003535
 20
3916.1128688471380883
 30
0.0
 11
13102.2209721542003535
 21
3917.6128688471380883
 31
0.0
  0
LINE
  5
48E
  8
0
 10
13102.2209721542003535
 20
3917.6128688471380883
 30
0.0
 11
13121.8209721542007173
 21
3917.6128688471380883
 31
0.0
  0
LINE
  5
48F
  8
0
 10
13121.8209721542007173
 20
3926.1128688471380883
 30
0.0
 11
13121.8209721542007173
 21
3924.6128688471380883
 31
0.0
  0
LINE
  5
490
  8
0
 10
13121.8209721542007173
 20
3917.6128688471380883
 30
0.0
 11
13121.8209721542007173
 21
3916.1128688471380883
 31
0.0
  0
CIRCLE
  5
491
  8
0
 10
13325.7983792705399537
 20
3929.6288503666428369
 30
0.0
 40
1.5
  0
LINE
  5
492
  8
0
 10
13315.9983792705297674
 20
3923.6288503666451106
 30
0.0
 11
13305.9983792705406813
 21
3923.6288503666451106
 31
0.0
  0
LINE
  5
493
  8
0
 10
13305.9983792705406813
 20
3923.6288503666451106
 30
0.0
 11
13305.9983792705406813
 21
3933.6288503666451106
 31
0.0
  0
LINE
  5
494
  8
0
 10
13305.9983792705406813
 20
3933.6288503666451106
 30
0.0
 11
13315.9983792705297674
 21
3933.6288503666451106
 31
0.0
  0
LINE
  5
495
  8
0
 10
13335.5983792705392261
 20
3923.6288503666451106
 30
0.0
 11
13345.5983792705392261
 21
3923.6288503666451106
 31
0.0
  0
LINE
  5
496
  8
0
 10
13345.5983792705392261
 20
3923.6288503666451106
 30
0.0
 11
13345.5983792705392261
 21
3933.6288503666451106
 31
0.0
  0
LINE
  5
497
  8
0
 10
13345.5983792705392261
 20
3933.6288503666451106
 30
0.0
 11
13335.5983792705392261
 21
3933.6288503666451106
 31
0.0
  0
LINE
  5
498
  8
0
 10
13315.9983792705297674
 20
3933.6288503666451106
 30
0.0
 11
13315.9983792705297674
 21
3932.1288503666451106
 31
0.0
  0
LINE
  5
499
  8
0
 10
13315.9983792705297674
 20
3932.1288503666451106
 30
0.0
 11
13335.5983792705392261
 21
3932.1288503666451106
 31
0.0
  0
LINE
  5
49A
  8
0
 10
13315.9983792705297674
 20
3923.6288503666451106
 30
0.0
 11
13315.9983792705297674
 21
3925.1288503666451106
 31
0.0
  0
LINE
  5
49B
  8
0
 10
13315.9983792705297674
 20
3925.1288503666451106
 30
0.0
 11
13335.5983792705392261
 21
3925.1288503666451106
 31
0.0
  0
LINE
  5
49C
  8
0
 10
13335.5983792705392261
 20
3933.6288503666451106
 30
0.0
 11
13335.5983792705392261
 21
3932.1288503666451106
 31
0.0
  0
LINE
  5
49D
  8
0
 10
13335.5983792705392261
 20
3925.1288503666451106
 30
0.0
 11
13335.5983792705392261
 21
3923.6288503666451106
 31
0.0
  0
CIRCLE
  5
49E
  8
0
 10
13153.6545197033392469
 20
3922.1238169186331106
 30
0.0
 40
1.5
  0
LINE
  5
49F
  8
0
 10
13143.8545197033399745
 20
3916.1238169186349296
 30
0.0
 11
13133.8545197033399745
 21
3916.1238169186349296
 31
0.0
  0
LINE
  5
4A0
  8
0
 10
13133.8545197033399745
 20
3916.1238169186349296
 30
0.0
 11
13133.8545197033399745
 21
3926.1238169186349296
 31
0.0
  0
LINE
  5
4A1
  8
0
 10
13133.8545197033399745
 20
3926.1238169186349296
 30
0.0
 11
13143.8545197033399745
 21
3926.1238169186349296
 31
0.0
  0
LINE
  5
4A2
  8
0
 10
13163.4545197033494333
 20
3916.1238169186349296
 30
0.0
 11
13173.4545197033494333
 21
3916.1238169186349296
 31
0.0
  0
LINE
  5
4A3
  8
0
 10
13173.4545197033494333
 20
3916.1238169186349296
 30
0.0
 11
13173.4545197033494333
 21
3926.1238169186349296
 31
0.0
  0
LINE
  5
4A4
  8
0
 10
13173.4545197033494333
 20
3926.1238169186349296
 30
0.0
 11
13163.4545197033494333
 21
3926.1238169186349296
 31
0.0
  0
LINE
  5
4A5
  8
0
 10
13143.8545197033399745
 20
3926.1238169186349296
 30
0.0
 11
13143.8545197033399745
 21
3924.6238169186349296
 31
0.0
  0
LINE
  5
4A6
  8
0
 10
13143.8545197033399745
 20
3924.6238169186349296
 30
0.0
 11
13163.4545197033494333
 21
3924.6238169186349296
 31
0.0
  0
LINE
  5
4A7
  8
0
 10
13143.8545197033399745
 20
3916.1238169186349296
 30
0.0
 11
13143.8545197033399745
 21
3917.6238169186349296
 31
0.0
  0
LINE
  5
4A8
  8
0
 10
13143.8545197033399745
 20
3917.6238169186349296
 30
0.0
 11
13163.4545197033494333
 21
3917.6238169186349296
 31
0.0
  0
LINE
  5
4A9
  8
0
 10
13163.4545197033494333
 20
3926.1238169186349296
 30
0.0
 11
13163.4545197033494333
 21
3924.6238169186349296
 31
0.0
  0
LINE
  5
4AA
  8
0
 10
13163.4545197033494333
 20
3917.6238169186349296
 30
0.0
 11
13163.4545197033494333
 21
3916.1238169186349296
 31
0.0
  0
CIRCLE
  5
4AB
  8
0
 10
13194.6998187646804581
 20
3922.1680867644331556
 30
0.0
 40
1.5
  0
LINE
  5
4AC
  8
0
 10
13184.8998187646793667
 20
3916.1680867644340651
 30
0.0
 11
13174.8998187646793667
 21
3916.1680867644340651
 31
0.0
  0
LINE
  5
4AD
  8
0
 10
13174.8998187646793667
 20
3916.1680867644340651
 30
0.0
 11
13174.8998187646793667
 21
3926.1680867644340651
 31
0.0
  0
LINE
  5
4AE
  8
0
 10
13174.8998187646793667
 20
3926.1680867644340651
 30
0.0
 11
13184.8998187646793667
 21
3926.1680867644340651
 31
0.0
  0
LINE
  5
4AF
  8
0
 10
13204.4998187646797305
 20
3916.1680867644340651
 30
0.0
 11
13214.4998187646797305
 21
3916.1680867644340651
 31
0.0
  0
LINE
  5
4B0
  8
0
 10
13214.4998187646797305
 20
3916.1680867644340651
 30
0.0
 11
13214.4998187646797305
 21
3926.1680867644340651
 31
0.0
  0
LINE
  5
4B1
  8
0
 10
13214.4998187646797305
 20
3926.1680867644340651
 30
0.0
 11
13204.4998187646797305
 21
3926.1680867644340651
 31
0.0
  0
LINE
  5
4B2
  8
0
 10
13184.8998187646793667
 20
3926.1680867644340651
 30
0.0
 11
13184.8998187646793667
 21
3924.6680867644340651
 31
0.0
  0
LINE
  5
4B3
  8
0
 10
13184.8998187646793667
 20
3924.6680867644340651
 30
0.0
 11
13204.4998187646797305
 21
3924.6680867644340651
 31
0.0
  0
LINE
  5
4B4
  8
0
 10
13184.8998187646793667
 20
3916.1680867644340651
 30
0.0
 11
13184.8998187646793667
 21
3917.6680867644349746
 31
0.0
  0
LINE
  5
4B5
  8
0
 10
13184.8998187646793667
 20
3917.6680867644349746
 30
0.0
 11
13204.4998187646797305
 21
3917.6680867644349746
 31
0.0
  0
LINE
  5
4B6
  8
0
 10
13204.4998187646797305
 20
3926.1680867644340651
 30
0.0
 11
13204.4998187646797305
 21
3924.6680867644340651
 31
0.0
  0
LINE
  5
4B7
  8
0
 10
13204.4998187646797305
 20
3917.6680867644349746
 30
0.0
 11
13204.4998187646797305
 21
3916.1680867644340651
 31
0.0
  0
CIRCLE
  5
4B8
  8
0
 10
13236.045374568509942
 20
3922.2208917651601041
 30
0.0
 40
1.5
  0
LINE
  5
4B9
  8
0
 10
13226.2453745684997557
 20
3916.2208917651610136
 30
0.0
 11
13216.2453745684997557
 21
3916.2208917651610136
 31
0.0
  0
LINE
  5
4BA
  8
0
 10
13216.2453745684997557
 20
3916.2208917651610136
 30
0.0
 11
13216.2453745684997557
 21
3926.2208917651610136
 31
0.0
  0
LINE
  5
4BB
  8
0
 10
13216.2453745684997557
 20
3926.2208917651610136
 30
0.0
 11
13226.2453745684997557
 21
3926.2208917651610136
 31
0.0
  0
LINE
  5
4BC
  8
0
 10
13245.8453745685001195
 20
3916.2208917651610136
 30
0.0
 11
13255.8453745685001195
 21
3916.2208917651610136
 31
0.0
  0
LINE
  5
4BD
  8
0
 10
13255.8453745685001195
 20
3916.2208917651610136
 30
0.0
 11
13255.8453745685001195
 21
3926.2208917651610136
 31
0.0
  0
LINE
  5
4BE
  8
0
 10
13255.8453745685001195
 20
3926.2208917651610136
 30
0.0
 11
13245.8453745685001195
 21
3926.2208917651610136
 31
0.0
  0
LINE
  5
4BF
  8
0
 10
13226.2453745684997557
 20
3926.2208917651610136
 30
0.0
 11
13226.2453745684997557
 21
3924.7208917651610136
 31
0.0
  0
LINE
  5
4C0
  8
0
 10
13226.2453745684997557
 20
3924.7208917651610136
 30
0.0
 11
13245.8453745685001195
 21
3924.7208917651610136
 31
0.0
  0
LINE
  5
4C1
  8
0
 10
13226.2453745684997557
 20
3916.2208917651610136
 30
0.0
 11
13226.2453745684997557
 21
3917.7208917651610136
 31
0.0
  0
LINE
  5
4C2
  8
0
 10
13226.2453745684997557
 20
3917.7208917651610136
 30
0.0
 11
13245.8453745685001195
 21
3917.7208917651610136
 31
0.0
  0
LINE
  5
4C3
  8
0
 10
13245.8453745685001195
 20
3926.2208917651610136
 30
0.0
 11
13245.8453745685001195
 21
3924.7208917651610136
 31
0.0
  0
LINE
  5
4C4
  8
0
 10
13245.8453745685001195
 20
3917.7208917651610136
 30
0.0
 11
13245.8453745685001195
 21
3916.2208917651610136
 31
0.0
  0
CIRCLE
  5
4C5
  8
0
 10
13279.1847532494994084
 20
3922.3276463544320904
 30
0.0
 40
1.5
  0
LINE
  5
4C6
  8
0
 10
13269.384753249500136
 20
3916.3276463544329999
 30
0.0
 11
13259.384753249500136
 21
3916.3276463544329999
 31
0.0
  0
LINE
  5
4C7
  8
0
 10
13259.384753249500136
 20
3916.3276463544329999
 30
0.0
 11
13259.384753249500136
 21
3926.3276463544329999
 31
0.0
  0
LINE
  5
4C8
  8
0
 10
13259.384753249500136
 20
3926.3276463544329999
 30
0.0
 11
13269.384753249500136
 21
3926.3276463544329999
 31
0.0
  0
LINE
  5
4C9
  8
0
 10
13288.9847532495095948
 20
3916.3276463544329999
 30
0.0
 11
13298.9847532495004998
 21
3916.3276463544329999
 31
0.0
  0
LINE
  5
4CA
  8
0
 10
13298.9847532495004998
 20
3916.3276463544329999
 30
0.0
 11
13298.9847532495004998
 21
3926.3276463544329999
 31
0.0
  0
LINE
  5
4CB
  8
0
 10
13298.9847532495004998
 20
3926.3276463544329999
 30
0.0
 11
13288.9847532495095948
 21
3926.3276463544329999
 31
0.0
  0
LINE
  5
4CC
  8
0
 10
13269.384753249500136
 20
3926.3276463544329999
 30
0.0
 11
13269.384753249500136
 21
3924.8276463544329999
 31
0.0
  0
LINE
  5
4CD
  8
0
 10
13269.384753249500136
 20
3924.8276463544329999
 30
0.0
 11
13288.9847532495095948
 21
3924.8276463544329999
 31
0.0
  0
LINE
  5
4CE
  8
0
 10
13269.384753249500136
 20
3916.3276463544329999
 30
0.0
 11
13269.384753249500136
 21
3917.8276463544329999
 31
0.0
  0
LINE
  5
4CF
  8
0
 10
13269.384753249500136
 20
3917.8276463544329999
 30
0.0
 11
13288.9847532495095948
 21
3917.8276463544329999
 31
0.0
  0
LINE
  5
4D0
  8
0
 10
13288.9847532495095948
 20
3926.3276463544329999
 30
0.0
 11
13288.9847532495095948
 21
3924.8276463544329999
 31
0.0
  0
LINE
  5
4D1
  8
0
 10
13288.9847532495095948
 20
3917.8276463544329999
 30
0.0
 11
13288.9847532495095948
 21
3916.3276463544329999
 31
0.0
  0
CIRCLE
  5
4D2
  8
0
 10
13461.0059969174999424
 20
3936.9648398860549605
 30
0.0
 40
7.5
  0
CIRCLE
  5
4D3
  8
0
 10
13461.0059969174999424
 20
3936.9648398860549605
 30
0.0
 40
2.1000000000000001
  0
CIRCLE
  5
4D4
  8
0
 10
13460.7701886767699762
 20
3919.1854638084359976
 30
0.0
 40
7.5
  0
CIRCLE
  5
4D5
  8
0
 10
13460.7701886767699762
 20
3919.1854638084359976
 30
0.0
 40
2.1000000000000001
  0
CIRCLE
  5
4D6
  8
0
 10
13543.8274048977400525
 20
3921.2266344656031833
 30
0.0
 40
7.5
  0
CIRCLE
  5
4D7
  8
0
 10
13543.8274048977400525
 20
3921.2266344656031833
 30
0.0
 40
2.1000000000000001
  0
CIRCLE
  5
4D8
  8
0
 10
13474.7018824943006621
 20
3927.6799838376291518
 30
0.0
 40
7.5
  0
CIRCLE
  5
4D9
  8
0
 10
13474.7018824943006621
 20
3927.6799838376291518
 30
0.0
 40
2.1000000000000001
  0
CIRCLE
  5
6D8
  8
0
 10
13829.2780079382700933
 20
4108.6271496878771359
 30
0.0
 40
1.5
  0
CIRCLE
  5
6D9
  8
0
 10
13829.2780079382700933
 20
4188.6271496878771359
 30
0.0
 40
1.5
  0
LINE
  5
6DA
  8
0
 10
13710.9256523875392304
 20
4088.6271496878762264
 30
0.0
 11
13690.9256523875392304
 21
4068.6271496878771359
 31
0.0
  0
LINE
  5
6DB
  8
0
 10
13710.9256523875392304
 20
4128.6271496878771359
 30
0.0
 11
13694.3571098926204286
 21
4128.6271496878771359
 31
0.0
  0
LINE
  5
6DC
  8
0
 10
13682.6413811400798295
 20
4116.9114209353392653
 30
0.0
 11
13650.9256523875392304
 21
4085.1956921828009399
 31
0.0
  0
LINE
  5
6DD
  8
0
 10
13682.6413811400798295
 20
4116.9114209353392653
 30
0.0
 11
13694.3571098926204286
 21
4128.6271496878771359
 31
0.0
  0
LINE
  5
6DE
  8
0
 10
13681.9256523875392304
 20
4068.6271496878771359
 30
0.0
 11
13681.9256523875392304
 21
3878.6271496878780454
 31
0.0
  0
LINE
  5
6DF
  8
0
 10
13685.9256523875392304
 20
4068.6271496878771359
 30
0.0
 11
13685.9256523875392304
 21
3878.6271496878780454
 31
0.0
  0
ARC
  5
6E0
  8
0
 10
13683.9256523875392304
 20
3878.6271496878780454
 30
0.0
 40
2.0
 50
180.0
 51
0.0
  0
ARC
  5
6E1
  8
0
 10
13683.9256523875392304
 20
4068.6271496878771359
 30
0.0
 40
2.0
 50
0.0
 51
180.0
  0
LINE
  5
6E2
  8
0
 10
13839.2780079382700933
 20
4088.6271496878762264
 30
0.0
 11
13849.2780079382791882
 21
4098.6271496878771359
 31
0.0
  0
LINE
  5
6E3
  8
0
 10
13810.9256523875392304
 20
4088.6271496878762264
 30
0.0
 11
13839.2780079382700933
 21
4088.6271496878762264
 31
0.0
  0
LINE
  5
6E4
  8
0
 10
13784.3571098926204286
 20
4128.6271496878771359
 30
0.0
 11
13809.2780079382791882
 21
4153.5480477335340765
 31
0.0
  0
LINE
  5
6E5
  8
0
 10
13819.2780079382791882
 20
4208.6271496878771359
 30
0.0
 11
13809.2780079382791882
 21
4198.6271496878771359
 31
0.0
  0
LINE
  5
6E6
  8
0
 10
13849.2780079382700933
 20
4198.6271496878771359
 30
0.0
 11
13839.2780079382700933
 21
4208.6271496878771359
 31
0.0
  0
LINE
  5
6E7
  8
0
 10
13819.2780079382791882
 20
4208.6271496878771359
 30
0.0
 11
13839.2780079382700933
 21
4208.6271496878771359
 31
0.0
  0
LINE
  5
6E8
  8
0
 10
13809.2780079382791882
 20
4198.6271496878771359
 30
0.0
 11
13809.2780079382791882
 21
4153.5480477335340765
 31
0.0
  0
LINE
  5
6E9
  8
0
 10
13849.2780079382700933
 20
4198.6271496878771359
 30
0.0
 11
13849.2780079382700933
 21
4098.6271496878762264
 31
0.0
  0
LINE
  5
6EA
  8
0
 10
13680.9256523875392304
 20
3868.6271496878780454
 30
0.0
 11
13690.9256523875392304
 21
3878.6271496878780454
 31
0.0
  0
LINE
  5
6EB
  8
0
 10
13650.9256523875392304
 20
3878.6271496878780454
 30
0.0
 11
13660.9256523875392304
 21
3868.6271496878780454
 31
0.0
  0
LINE
  5
6EC
  8
0
 10
13650.9256523875392304
 20
4085.1956921828009399
 30
0.0
 11
13650.9256523875392304
 21
3878.6271496878762264
 31
0.0
  0
LINE
  5
6ED
  8
0
 10
13660.9256523875392304
 20
3868.6271496878780454
 30
0.0
 11
13680.9256523875392304
 21
3868.6271496878780454
 31
0.0
  0
LINE
  5
6EE
  8
0
 10
13690.9256523875392304
 20
4068.6271496878771359
 30
0.0
 11
13690.9256523875392304
 21
3878.6271496878780454
 31
0.0
  0
LINE
  5
6EF
  8
0
 10
13755.9256523875392304
 20
4128.6271496878771359
 30
0.0
 11
13694.3571098926204286
 21
4128.6271496878771359
 31
0.0
  0
LINE
  5
6F0
  8
0
 10
13755.9256523875392304
 20
4088.6271496878762264
 30
0.0
 11
13710.9256523875392304
 21
4088.6271496878762264
 31
0.0
  0
LINE
  5
6F1
  8
0
 10
13755.9256523875392304
 20
4128.6271496878771359
 30
0.0
 11
13784.3571098926204286
 21
4128.6271496878771359
 31
0.0
  0
LINE
  5
6F2
  8
0
 10
13810.9256523875392304
 20
4088.6271496878762264
 30
0.0
 11
13755.9256523875392304
 21
4088.6271496878762264
 31
0.0
  0
CIRCLE
  5
6F3
  8
0
 10
13877.5007766125891067
 20
4050.8984018745131834
 30
0.0
 40
1.5
  0
CIRCLE
  5
6F4
  8
0
 10
13877.5007766125891067
 20
4130.8984018745131834
 30
0.0
 40
1.5
  0
LINE
  5
6F5
  8
0
 10
13759.1484210618600628
 20
4030.8984018745131834
 30
0.0
 11
13739.1484210618600628
 21
4010.8984018745131834
 31
0.0
  0
LINE
  5
6F6
  8
0
 10
13759.1484210618600628
 20
4070.8984018745131834
 30
0.0
 11
13742.579878566939442
 21
4070.8984018745131834
 31
0.0
  0
LINE
  5
6F7
  8
0
 10
13730.8641498144006619
 20
4059.1826731219748581
 30
0.0
 11
13699.1484210618600628
 21
4027.466944369437897
 31
0.0
  0
LINE
  5
6F8
  8
0
 10
13730.8641498144006619
 20
4059.1826731219748581
 30
0.0
 11
13742.579878566939442
 21
4070.8984018745131834
 31
0.0
  0
LINE
  5
6F9
  8
0
 10
13730.1484210618600628
 20
4010.8984018745131834
 30
0.0
 11
13730.1484210618600628
 21
3820.8984018745140929
 31
0.0
  0
LINE
  5
6FA
  8
0
 10
13734.1484210618600628
 20
4010.8984018745131834
 30
0.0
 11
13734.1484210618600628
 21
3820.8984018745140929
 31
0.0
  0
ARC
  5
6FB
  8
0
 10
13732.1484210618600628
 20
3820.8984018745140929
 30
0.0
 40
2.0
 50
180.0
 51
0.0
  0
ARC
  5
6FC
  8
0
 10
13732.1484210618600628
 20
4010.8984018745131834
 30
0.0
 40
2.0
 50
0.0
 51
180.0
  0
LINE
  5
6FD
  8
0
 10
13887.5007766125891067
 20
4030.8984018745131834
 30
0.0
 11
13897.5007766125891067
 21
4040.8984018745131834
 31
0.0
  0
LINE
  5
6FE
  8
0
 10
13859.1484210618600628
 20
4030.8984018745131834
 30
0.0
 11
13887.5007766125891067
 21
4030.8984018745131834
 31
0.0
  0
LINE
  5
6FF
  8
0
 10
13832.579878566939442
 20
4070.8984018745131834
 30
0.0
 11
13857.5007766125891067
 21
4095.8192999201701241
 31
0.0
  0
LINE
  5
700
  8
0
 10
13867.5007766126000206
 20
4150.8984018745122739
 30
0.0
 11
13857.5007766125891067
 21
4140.8984018745131834
 31
0.0
  0
LINE
  5
701
  8
0
 10
13897.5007766125891067
 20
4140.8984018745131834
 30
0.0
 11
13887.5007766125891067
 21
4150.8984018745122739
 31
0.0
  0
LINE
  5
702
  8
0
 10
13867.5007766126000206
 20
4150.8984018745122739
 30
0.0
 11
13887.5007766125891067
 21
4150.8984018745122739
 31
0.0
  0
LINE
  5
703
  8
0
 10
13857.5007766125891067
 20
4140.8984018745131834
 30
0.0
 11
13857.5007766125891067
 21
4095.8192999201701241
 31
0.0
  0
LINE
  5
704
  8
0
 10
13897.5007766125891067
 20
4140.8984018745131834
 30
0.0
 11
13897.5007766125891067
 21
4040.8984018745118192
 31
0.0
  0
LINE
  5
705
  8
0
 10
13729.1484210618600628
 20
3810.8984018745140929
 30
0.0
 11
13739.1484210618600628
 21
3820.8984018745140929
 31
0.0
  0
LINE
  5
706
  8
0
 10
13699.1484210618600628
 20
3820.8984018745140929
 30
0.0
 11
13709.1484210618600628
 21
3810.8984018745140929
 31
0.0
  0
LINE
  5
707
  8
0
 10
13699.1484210618600628
 20
4027.466944369437897
 30
0.0
 11
13699.1484210618600628
 21
3820.8984018745118192
 31
0.0
  0
LINE
  5
708
  8
0
 10
13709.1484210618600628
 20
3810.8984018745140929
 30
0.0
 11
13729.1484210618600628
 21
3810.8984018745140929
 31
0.0
  0
LINE
  5
709
  8
0
 10
13739.1484210618600628
 20
4010.8984018745131834
 30
0.0
 11
13739.1484210618600628
 21
3820.8984018745140929
 31
0.0
  0
LINE
  5
70A
  8
0
 10
13804.1484210618600628
 20
4070.8984018745131834
 30
0.0
 11
13742.579878566939442
 21
4070.8984018745131834
 31
0.0
  0
LINE
  5
70B
  8
0
 10
13804.1484210618600628
 20
4030.8984018745131834
 30
0.0
 11
13759.1484210618600628
 21
4030.8984018745131834
 31
0.0
  0
LINE
  5
70C
  8
0
 10
13804.1484210618600628
 20
4070.8984018745131834
 30
0.0
 11
13832.579878566939442
 21
4070.8984018745131834
 31
0.0
  0
LINE
  5
70D
  8
0
 10
13859.1484210618600628
 20
4030.8984018745131834
 30
0.0
 11
13804.1484210618600628
 21
4030.8984018745131834
 31
0.0
  0
ENDSEC
  0
EOF
